<?xml version="1.0" standalone="no"?>
 <!DOCTYPE svg PUBLIC "-//W3C//DTD SVG 1.1//EN" 
 "http://www.w3.org/Graphics/SVG/1.1/DTD/svg11.dtd"> 
<svg xmlns="http://www.w3.org/2000/svg" version="1.1" 
    width="1.63068cm" height="1.1684cm" viewBox="0 0 6420 4600 ">
<title>SVG Picture created as cap_iso_pwr-F.Cu.svg date 2020/01/26 21:01:23 </title>
  <desc>Picture generated by PCBNEW </desc>
<g style="fill:#000000; fill-opacity:1;stroke:#000000; stroke-opacity:1;
stroke-linecap:round; stroke-linejoin:round; "
 transform="translate(0 0) scale(1 1)">
</g>
<g style="fill:#000000; fill-opacity:0.0; 
stroke:#000000; stroke-width:-0.000393701; stroke-opacity:1; 
stroke-linecap:round; stroke-linejoin:round;">
</g>
<g style="fill:#000000; fill-opacity:0.0; 
stroke:#000000; stroke-width:0; stroke-opacity:1; 
stroke-linecap:round; stroke-linejoin:round;">
</g>
<g style="fill:#000000; fill-opacity:1.0; 
stroke:#000000; stroke-width:0; stroke-opacity:1; 
stroke-linecap:round; stroke-linejoin:round;">
<polyline style="fill-rule:evenodd;"
points="5190,3011
5190,2460
5662,2460
5662,3011
5190,3011
" /> 
<polyline style="fill-rule:evenodd;"
points="5906,3011
5906,2460
6300,2460
6300,3011
5906,3011
" /> 
<polyline style="fill-rule:evenodd;"
points="5906,2145
5906,1594
6300,1594
6300,2145
5906,2145
" /> 
<polyline style="fill-rule:evenodd;"
points="5158,2145
5158,1594
5552,1594
5552,2145
5158,2145
" /> 
<polyline style="fill-rule:evenodd;"
points="1104,3716
1112,3717
1120,3719
1128,3722
1136,3726
1143,3730
1150,3735
1156,3741
1162,3747
1167,3754
1171,3761
1175,3769
1177,3777
1180,3785
1181,3793
1181,3802
1181,4004
1181,4012
1180,4020
1177,4029
1175,4036
1171,4044
1167,4051
1162,4058
1156,4064
1150,4070
1143,4075
1136,4079
1128,4083
1120,4086
1112,4088
1104,4089
1095,4090
923,4090
914,4089
906,4088
898,4086
890,4083
882,4079
875,4075
868,4070
862,4064
856,4058
851,4051
847,4044
843,4036
840,4029
838,4020
837,4012
837,4004
837,3802
837,3793
838,3785
840,3777
843,3769
847,3761
851,3754
856,3747
862,3741
868,3735
875,3730
882,3726
890,3722
898,3719
906,3717
914,3716
923,3716
1095,3716
1104,3716
" /> 
<polyline style="fill-rule:evenodd;"
points="1724,3716
1732,3717
1740,3719
1748,3722
1756,3726
1763,3730
1770,3735
1776,3741
1782,3747
1787,3754
1791,3761
1795,3769
1798,3777
1800,3785
1801,3793
1801,3802
1801,4004
1801,4012
1800,4020
1798,4029
1795,4036
1791,4044
1787,4051
1782,4058
1776,4064
1770,4070
1763,4075
1756,4079
1748,4083
1740,4086
1732,4088
1724,4089
1715,4090
1543,4090
1534,4089
1526,4088
1518,4086
1510,4083
1502,4079
1495,4075
1488,4070
1482,4064
1476,4058
1471,4051
1467,4044
1463,4036
1460,4029
1458,4020
1457,4012
1457,4004
1457,3802
1457,3793
1458,3785
1460,3777
1463,3769
1467,3761
1471,3754
1476,3747
1482,3741
1488,3735
1495,3730
1502,3726
1510,3722
1518,3719
1526,3717
1534,3716
1543,3716
1715,3716
1724,3716
" /> 
<polyline style="fill-rule:evenodd;"
points="3315,3844
3099,3844
3099,3281
3315,3281
3315,3844
" /> 
<polyline style="fill-rule:evenodd;"
points="3315,1324
3099,1324
3099,761
3315,761
3315,1324
" /> 
<polyline style="fill-rule:evenodd;"
points="5559,1324
5343,1324
5343,761
5559,761
5559,1324
" /> 
<polyline style="fill-rule:evenodd;"
points="5559,3844
5343,3844
5343,3281
5559,3281
5559,3844
" /> 
<polyline style="fill-rule:evenodd;"
points="359,1673
359,1433
1111,1433
1111,1673
359,1673
" /> 
<polyline style="fill-rule:evenodd;"
points="359,2173
359,1933
1111,1933
1111,2173
359,2173
" /> 
<polyline style="fill-rule:evenodd;"
points="359,2673
359,2433
1111,2433
1111,2673
359,2673
" /> 
<polyline style="fill-rule:evenodd;"
points="359,3173
359,2933
1111,2933
1111,3173
359,3173
" /> 
<polyline style="fill-rule:evenodd;"
points="2548,3173
2548,2933
3300,2933
3300,3173
2548,3173
" /> 
<polyline style="fill-rule:evenodd;"
points="2548,2673
2548,2433
3300,2433
3300,2673
2548,2673
" /> 
<polyline style="fill-rule:evenodd;"
points="2548,2173
2548,1933
3300,1933
3300,2173
2548,2173
" /> 
<polyline style="fill-rule:evenodd;"
points="2548,1673
2548,1433
3300,1433
3300,1673
2548,1673
" /> 
<polyline style="fill-rule:evenodd;"
points="1829,2913
1829,2303
2303,2303
2303,2913
1829,2913
" /> 
<polyline style="fill-rule:evenodd;"
points="1829,2303
1829,1692
2303,1692
2303,2303
1829,2303
" /> 
<polyline style="fill-rule:evenodd;"
points="1355,2913
1355,2303
1829,2303
1829,2913
1355,2913
" /> 
<polyline style="fill-rule:evenodd;"
points="1355,2303
1355,1692
1829,1692
1829,2303
1355,2303
" /> 
<polyline style="fill-rule:evenodd;"
points="1104,816
1112,817
1120,819
1128,822
1136,826
1143,830
1150,835
1156,841
1162,847
1167,854
1171,861
1175,869
1177,877
1180,885
1181,893
1181,902
1181,1104
1181,1112
1180,1120
1177,1129
1175,1136
1171,1144
1167,1151
1162,1158
1156,1164
1150,1170
1143,1175
1136,1179
1128,1183
1120,1186
1112,1188
1104,1189
1095,1190
923,1190
914,1189
906,1188
898,1186
890,1183
882,1179
875,1175
868,1170
862,1164
856,1158
851,1151
847,1144
843,1136
840,1129
838,1120
837,1112
837,1104
837,902
837,893
838,885
840,877
843,869
847,861
851,854
856,847
862,841
868,835
875,830
882,826
890,822
898,819
906,817
914,816
923,816
1095,816
1104,816
" /> 
<polyline style="fill-rule:evenodd;"
points="1724,816
1732,817
1740,819
1748,822
1756,826
1763,830
1770,835
1776,841
1782,847
1787,854
1791,861
1795,869
1798,877
1800,885
1801,893
1801,902
1801,1104
1801,1112
1800,1120
1798,1129
1795,1136
1791,1144
1787,1151
1782,1158
1776,1164
1770,1170
1763,1175
1756,1179
1748,1183
1740,1186
1732,1188
1724,1189
1715,1190
1543,1190
1534,1189
1526,1188
1518,1186
1510,1183
1502,1179
1495,1175
1488,1170
1482,1164
1476,1158
1471,1151
1467,1144
1463,1136
1460,1129
1458,1120
1457,1112
1457,1104
1457,902
1457,893
1458,885
1460,877
1463,869
1467,861
1471,854
1476,847
1482,841
1488,835
1495,830
1502,826
1510,822
1518,819
1526,817
1534,816
1543,816
1715,816
1724,816
" /> 
</g>
<g style="fill:#000000; fill-opacity:1.0; 
stroke:#000000; stroke-width:98.4252; stroke-opacity:1; 
stroke-linecap:round; stroke-linejoin:round;">
</g>
<g style="fill:#000000; fill-opacity:0.0; 
stroke:#000000; stroke-width:98.4252; stroke-opacity:1; 
stroke-linecap:round; stroke-linejoin:round;">
<path d="M1629 1960
L1592 1998
" />
<path d="M1629 1003
L1629 1960
" />
<path d="M1009 1278
L735 1553
" />
<path d="M1009 1003
L1009 1278
" />
</g>
<g style="fill:#000000; fill-opacity:0.0; 
stroke:#000000; stroke-width:157.48; stroke-opacity:1; 
stroke-linecap:round; stroke-linejoin:round;">
<path d="M3207 3336
L2924 3053
" />
<path d="M3207 3562
L3207 3336
" />
<path d="M3207 1269
L2924 1553
" />
<path d="M3207 1043
L3207 1269
" />
<path d="M6103 3129
L6103 2736
" />
<path d="M5451 3562
L5669 3562
" />
<path d="M5669 3562
L6103 3129
" />
<path d="M5451 1043
L5669 1043
" />
<path d="M6103 1477
L6103 1870
" />
<path d="M5669 1043
L6103 1477
" />
</g>
<g style="fill:#000000; fill-opacity:1.0; 
stroke:#000000; stroke-width:39.3701; stroke-opacity:1; 
stroke-linecap:round; stroke-linejoin:round;">
<polyline style="fill-rule:evenodd;"
points="2427,1673
2436,1719
2462,1758
2501,1784
2548,1793
3300,1793
3309,1791
3309,2814
3300,2812
2548,2812
2501,2821
2462,2847
2436,2886
2427,2933
2427,3173
2436,3219
2462,3258
2501,3284
2548,3293
2609,3293
2609,4183
1349,4183
1349,1622
2427,1622
2427,1673
" /> 
<polyline style="fill-rule:evenodd;"
points="6309,1475
6303,1474
6300,1457
6288,1400
6245,1335
6229,1324
5822,917
5811,901
5746,857
5689,846
5689,846
5680,844
5680,761
5671,715
5644,676
5605,650
5559,641
5343,641
5297,650
5258,676
5232,715
5222,761
5222,1324
5232,1370
5258,1409
5297,1436
5343,1445
5559,1445
5605,1436
5644,1409
5671,1370
5679,1331
5842,1495
5821,1509
5795,1548
5786,1594
5786,2145
5793,2183
5149,2183
5149,422
6309,422
6309,1475
" /> 
<polyline style="fill-rule:evenodd;"
points="5786,2460
5786,3011
5795,3057
5821,3096
5842,3111
5679,3275
5671,3235
5644,3196
5605,3170
5559,3161
5343,3161
5297,3170
5258,3196
5232,3235
5222,3281
5222,3844
5232,3890
5258,3929
5297,3955
5343,3964
5559,3964
5605,3955
5644,3929
5671,3890
5680,3844
5680,3761
5689,3759
5689,3759
5746,3748
5811,3704
5822,3688
6229,3282
6245,3271
6288,3205
6300,3148
6300,3148
6303,3131
6309,3130
6309,4183
5149,4183
5149,2422
5793,2422
5786,2460
" /> 
<polyline style="fill-rule:evenodd;"
points="2011,422
2011,703
2020,748
2046,786
2084,812
2129,821
2529,821
2574,812
2613,786
2638,748
2647,703
2647,422
3509,422
3509,4183
2747,4183
2747,3321
2913,3321
2978,3386
2978,3844
2987,3890
3014,3929
3053,3955
3099,3964
3315,3964
3361,3955
3400,3929
3427,3890
3436,3844
3436,3281
3431,3258
3438,3248
3447,3203
3447,1603
3438,1557
3420,1530
3420,1433
3412,1392
3427,1370
3436,1324
3436,761
3427,715
3400,676
3361,650
3315,641
3099,641
3053,650
3014,676
2987,715
2978,761
2978,1219
2886,1312
2548,1312
2501,1321
2462,1347
2436,1386
2427,1433
2427,1485
1796,1485
1796,1293
1861,1250
1906,1183
1922,1104
1922,902
1906,823
1861,756
1794,711
1715,695
1543,695
1464,711
1397,756
1352,823
1336,902
1336,1104
1352,1183
1397,1250
1462,1293
1462,1485
1329,1485
1284,1494
1246,1519
1231,1541
1231,1433
1222,1386
1196,1347
1169,1330
1176,1295
1177,1293
1241,1250
1286,1183
1302,1104
1302,902
1286,823
1241,756
1174,711
1095,695
923,695
844,711
777,756
732,823
716,902
716,1104
732,1183
777,1250
791,1259
738,1312
359,1312
312,1321
273,1347
247,1386
238,1433
238,1673
247,1719
273,1758
312,1784
359,1793
1111,1793
1157,1784
1196,1758
1211,1735
1211,4183
49,4183
49,422
2011,422
" /> 
<polyline style="fill-rule:evenodd;"
points="2509,683
2149,683
2149,422
2509,422
2509,683
" /> 
</g>
<g style="fill:#FFFFFF; fill-opacity:1.0; 
stroke:#FFFFFF; stroke-width:39.3701; stroke-opacity:1; 
stroke-linecap:round; stroke-linejoin:round;">
</g>
<g style="fill:#000000; fill-opacity:1.0; 
stroke:#000000; stroke-width:39.3701; stroke-opacity:1; 
stroke-linecap:round; stroke-linejoin:round;">
</g> 
</svg>
