G04 #@! TF.GenerationSoftware,KiCad,Pcbnew,5.1.4-e60b266~84~ubuntu18.04.1*
G04 #@! TF.CreationDate,2019-11-10T13:24:48-08:00*
G04 #@! TF.ProjectId,mic,6d69632e-6b69-4636-9164-5f7063625858,rev?*
G04 #@! TF.SameCoordinates,Original*
G04 #@! TF.FileFunction,Soldermask,Bot*
G04 #@! TF.FilePolarity,Negative*
%FSLAX46Y46*%
G04 Gerber Fmt 4.6, Leading zero omitted, Abs format (unit mm)*
G04 Created by KiCad (PCBNEW 5.1.4-e60b266~84~ubuntu18.04.1) date 2019-11-10 13:24:48*
%MOMM*%
%LPD*%
G04 APERTURE LIST*
%ADD10C,0.100000*%
G04 APERTURE END LIST*
D10*
G36*
X164840256Y-108881298D02*
G01*
X164946579Y-108902447D01*
X165247042Y-109026903D01*
X165517451Y-109207585D01*
X165747415Y-109437549D01*
X165928097Y-109707958D01*
X166052553Y-110008421D01*
X166116000Y-110327391D01*
X166116000Y-110652609D01*
X166052553Y-110971579D01*
X165928097Y-111272042D01*
X165747415Y-111542451D01*
X165517451Y-111772415D01*
X165247042Y-111953097D01*
X164946579Y-112077553D01*
X164840256Y-112098702D01*
X164627611Y-112141000D01*
X164302389Y-112141000D01*
X164089744Y-112098702D01*
X163983421Y-112077553D01*
X163682958Y-111953097D01*
X163412549Y-111772415D01*
X163182585Y-111542451D01*
X163001903Y-111272042D01*
X162877447Y-110971579D01*
X162814000Y-110652609D01*
X162814000Y-110327391D01*
X162877447Y-110008421D01*
X163001903Y-109707958D01*
X163182585Y-109437549D01*
X163412549Y-109207585D01*
X163682958Y-109026903D01*
X163983421Y-108902447D01*
X164089744Y-108881298D01*
X164302389Y-108839000D01*
X164627611Y-108839000D01*
X164840256Y-108881298D01*
X164840256Y-108881298D01*
G37*
G36*
X118485256Y-108881298D02*
G01*
X118591579Y-108902447D01*
X118892042Y-109026903D01*
X119162451Y-109207585D01*
X119392415Y-109437549D01*
X119573097Y-109707958D01*
X119697553Y-110008421D01*
X119761000Y-110327391D01*
X119761000Y-110652609D01*
X119697553Y-110971579D01*
X119573097Y-111272042D01*
X119392415Y-111542451D01*
X119162451Y-111772415D01*
X118892042Y-111953097D01*
X118591579Y-112077553D01*
X118485256Y-112098702D01*
X118272611Y-112141000D01*
X117947389Y-112141000D01*
X117734744Y-112098702D01*
X117628421Y-112077553D01*
X117327958Y-111953097D01*
X117057549Y-111772415D01*
X116827585Y-111542451D01*
X116646903Y-111272042D01*
X116522447Y-110971579D01*
X116459000Y-110652609D01*
X116459000Y-110327391D01*
X116522447Y-110008421D01*
X116646903Y-109707958D01*
X116827585Y-109437549D01*
X117057549Y-109207585D01*
X117327958Y-109026903D01*
X117628421Y-108902447D01*
X117734744Y-108881298D01*
X117947389Y-108839000D01*
X118272611Y-108839000D01*
X118485256Y-108881298D01*
X118485256Y-108881298D01*
G37*
G36*
X175370443Y-105785519D02*
G01*
X175436627Y-105792037D01*
X175606466Y-105843557D01*
X175762991Y-105927222D01*
X175798729Y-105956552D01*
X175900186Y-106039814D01*
X175983448Y-106141271D01*
X176012778Y-106177009D01*
X176096443Y-106333534D01*
X176147963Y-106503373D01*
X176165359Y-106680000D01*
X176147963Y-106856627D01*
X176096443Y-107026466D01*
X176012778Y-107182991D01*
X175983448Y-107218729D01*
X175900186Y-107320186D01*
X175798729Y-107403448D01*
X175762991Y-107432778D01*
X175606466Y-107516443D01*
X175436627Y-107567963D01*
X175370443Y-107574481D01*
X175304260Y-107581000D01*
X175215740Y-107581000D01*
X175149557Y-107574481D01*
X175083373Y-107567963D01*
X174913534Y-107516443D01*
X174757009Y-107432778D01*
X174721271Y-107403448D01*
X174619814Y-107320186D01*
X174536552Y-107218729D01*
X174507222Y-107182991D01*
X174423557Y-107026466D01*
X174372037Y-106856627D01*
X174354641Y-106680000D01*
X174372037Y-106503373D01*
X174423557Y-106333534D01*
X174507222Y-106177009D01*
X174536552Y-106141271D01*
X174619814Y-106039814D01*
X174721271Y-105956552D01*
X174757009Y-105927222D01*
X174913534Y-105843557D01*
X175083373Y-105792037D01*
X175149557Y-105785519D01*
X175215740Y-105779000D01*
X175304260Y-105779000D01*
X175370443Y-105785519D01*
X175370443Y-105785519D01*
G37*
G36*
X177910443Y-105785519D02*
G01*
X177976627Y-105792037D01*
X178146466Y-105843557D01*
X178302991Y-105927222D01*
X178338729Y-105956552D01*
X178440186Y-106039814D01*
X178523448Y-106141271D01*
X178552778Y-106177009D01*
X178636443Y-106333534D01*
X178687963Y-106503373D01*
X178705359Y-106680000D01*
X178687963Y-106856627D01*
X178636443Y-107026466D01*
X178552778Y-107182991D01*
X178523448Y-107218729D01*
X178440186Y-107320186D01*
X178338729Y-107403448D01*
X178302991Y-107432778D01*
X178146466Y-107516443D01*
X177976627Y-107567963D01*
X177910443Y-107574481D01*
X177844260Y-107581000D01*
X177755740Y-107581000D01*
X177689557Y-107574481D01*
X177623373Y-107567963D01*
X177453534Y-107516443D01*
X177297009Y-107432778D01*
X177261271Y-107403448D01*
X177159814Y-107320186D01*
X177076552Y-107218729D01*
X177047222Y-107182991D01*
X176963557Y-107026466D01*
X176912037Y-106856627D01*
X176894641Y-106680000D01*
X176912037Y-106503373D01*
X176963557Y-106333534D01*
X177047222Y-106177009D01*
X177076552Y-106141271D01*
X177159814Y-106039814D01*
X177261271Y-105956552D01*
X177297009Y-105927222D01*
X177453534Y-105843557D01*
X177623373Y-105792037D01*
X177689557Y-105785519D01*
X177755740Y-105779000D01*
X177844260Y-105779000D01*
X177910443Y-105785519D01*
X177910443Y-105785519D01*
G37*
G36*
X177910443Y-103245519D02*
G01*
X177976627Y-103252037D01*
X178146466Y-103303557D01*
X178302991Y-103387222D01*
X178338729Y-103416552D01*
X178440186Y-103499814D01*
X178523448Y-103601271D01*
X178552778Y-103637009D01*
X178636443Y-103793534D01*
X178687963Y-103963373D01*
X178705359Y-104140000D01*
X178687963Y-104316627D01*
X178636443Y-104486466D01*
X178552778Y-104642991D01*
X178523448Y-104678729D01*
X178440186Y-104780186D01*
X178338729Y-104863448D01*
X178302991Y-104892778D01*
X178146466Y-104976443D01*
X177976627Y-105027963D01*
X177910442Y-105034482D01*
X177844260Y-105041000D01*
X177755740Y-105041000D01*
X177689557Y-105034481D01*
X177623373Y-105027963D01*
X177453534Y-104976443D01*
X177297009Y-104892778D01*
X177261271Y-104863448D01*
X177159814Y-104780186D01*
X177076552Y-104678729D01*
X177047222Y-104642991D01*
X176963557Y-104486466D01*
X176912037Y-104316627D01*
X176894641Y-104140000D01*
X176912037Y-103963373D01*
X176963557Y-103793534D01*
X177047222Y-103637009D01*
X177076552Y-103601271D01*
X177159814Y-103499814D01*
X177261271Y-103416552D01*
X177297009Y-103387222D01*
X177453534Y-103303557D01*
X177623373Y-103252037D01*
X177689558Y-103245518D01*
X177755740Y-103239000D01*
X177844260Y-103239000D01*
X177910443Y-103245519D01*
X177910443Y-103245519D01*
G37*
G36*
X175370443Y-103245519D02*
G01*
X175436627Y-103252037D01*
X175606466Y-103303557D01*
X175762991Y-103387222D01*
X175798729Y-103416552D01*
X175900186Y-103499814D01*
X175983448Y-103601271D01*
X176012778Y-103637009D01*
X176096443Y-103793534D01*
X176147963Y-103963373D01*
X176165359Y-104140000D01*
X176147963Y-104316627D01*
X176096443Y-104486466D01*
X176012778Y-104642991D01*
X175983448Y-104678729D01*
X175900186Y-104780186D01*
X175798729Y-104863448D01*
X175762991Y-104892778D01*
X175606466Y-104976443D01*
X175436627Y-105027963D01*
X175370442Y-105034482D01*
X175304260Y-105041000D01*
X175215740Y-105041000D01*
X175149557Y-105034481D01*
X175083373Y-105027963D01*
X174913534Y-104976443D01*
X174757009Y-104892778D01*
X174721271Y-104863448D01*
X174619814Y-104780186D01*
X174536552Y-104678729D01*
X174507222Y-104642991D01*
X174423557Y-104486466D01*
X174372037Y-104316627D01*
X174354641Y-104140000D01*
X174372037Y-103963373D01*
X174423557Y-103793534D01*
X174507222Y-103637009D01*
X174536552Y-103601271D01*
X174619814Y-103499814D01*
X174721271Y-103416552D01*
X174757009Y-103387222D01*
X174913534Y-103303557D01*
X175083373Y-103252037D01*
X175149558Y-103245518D01*
X175215740Y-103239000D01*
X175304260Y-103239000D01*
X175370443Y-103245519D01*
X175370443Y-103245519D01*
G37*
G36*
X177910443Y-100705519D02*
G01*
X177976627Y-100712037D01*
X178146466Y-100763557D01*
X178302991Y-100847222D01*
X178338729Y-100876552D01*
X178440186Y-100959814D01*
X178523448Y-101061271D01*
X178552778Y-101097009D01*
X178636443Y-101253534D01*
X178687963Y-101423373D01*
X178705359Y-101600000D01*
X178687963Y-101776627D01*
X178636443Y-101946466D01*
X178552778Y-102102991D01*
X178523448Y-102138729D01*
X178440186Y-102240186D01*
X178338729Y-102323448D01*
X178302991Y-102352778D01*
X178146466Y-102436443D01*
X177976627Y-102487963D01*
X177910442Y-102494482D01*
X177844260Y-102501000D01*
X177755740Y-102501000D01*
X177689558Y-102494482D01*
X177623373Y-102487963D01*
X177453534Y-102436443D01*
X177297009Y-102352778D01*
X177261271Y-102323448D01*
X177159814Y-102240186D01*
X177076552Y-102138729D01*
X177047222Y-102102991D01*
X176963557Y-101946466D01*
X176912037Y-101776627D01*
X176894641Y-101600000D01*
X176912037Y-101423373D01*
X176963557Y-101253534D01*
X177047222Y-101097009D01*
X177076552Y-101061271D01*
X177159814Y-100959814D01*
X177261271Y-100876552D01*
X177297009Y-100847222D01*
X177453534Y-100763557D01*
X177623373Y-100712037D01*
X177689557Y-100705519D01*
X177755740Y-100699000D01*
X177844260Y-100699000D01*
X177910443Y-100705519D01*
X177910443Y-100705519D01*
G37*
G36*
X175370443Y-100705519D02*
G01*
X175436627Y-100712037D01*
X175606466Y-100763557D01*
X175762991Y-100847222D01*
X175798729Y-100876552D01*
X175900186Y-100959814D01*
X175983448Y-101061271D01*
X176012778Y-101097009D01*
X176096443Y-101253534D01*
X176147963Y-101423373D01*
X176165359Y-101600000D01*
X176147963Y-101776627D01*
X176096443Y-101946466D01*
X176012778Y-102102991D01*
X175983448Y-102138729D01*
X175900186Y-102240186D01*
X175798729Y-102323448D01*
X175762991Y-102352778D01*
X175606466Y-102436443D01*
X175436627Y-102487963D01*
X175370442Y-102494482D01*
X175304260Y-102501000D01*
X175215740Y-102501000D01*
X175149558Y-102494482D01*
X175083373Y-102487963D01*
X174913534Y-102436443D01*
X174757009Y-102352778D01*
X174721271Y-102323448D01*
X174619814Y-102240186D01*
X174536552Y-102138729D01*
X174507222Y-102102991D01*
X174423557Y-101946466D01*
X174372037Y-101776627D01*
X174354641Y-101600000D01*
X174372037Y-101423373D01*
X174423557Y-101253534D01*
X174507222Y-101097009D01*
X174536552Y-101061271D01*
X174619814Y-100959814D01*
X174721271Y-100876552D01*
X174757009Y-100847222D01*
X174913534Y-100763557D01*
X175083373Y-100712037D01*
X175149557Y-100705519D01*
X175215740Y-100699000D01*
X175304260Y-100699000D01*
X175370443Y-100705519D01*
X175370443Y-100705519D01*
G37*
G36*
X143550643Y-101301546D02*
G01*
X143586662Y-101308711D01*
X143608086Y-101315209D01*
X143642020Y-101329266D01*
X143647459Y-101332173D01*
X143647461Y-101332174D01*
X143656320Y-101336909D01*
X143656323Y-101336911D01*
X143661758Y-101339816D01*
X143692308Y-101360229D01*
X143709599Y-101374418D01*
X143735582Y-101400401D01*
X143749771Y-101417692D01*
X143770184Y-101448242D01*
X143780734Y-101467980D01*
X143794791Y-101501914D01*
X143801289Y-101523338D01*
X143808454Y-101559357D01*
X143810648Y-101581636D01*
X143810648Y-101618364D01*
X143808454Y-101640643D01*
X143801289Y-101676662D01*
X143794791Y-101698086D01*
X143780734Y-101732020D01*
X143770184Y-101751758D01*
X143749771Y-101782308D01*
X143735582Y-101799599D01*
X143709599Y-101825582D01*
X143692308Y-101839771D01*
X143661758Y-101860184D01*
X143656323Y-101863089D01*
X143656320Y-101863091D01*
X143647461Y-101867826D01*
X143642020Y-101870734D01*
X143608086Y-101884791D01*
X143586662Y-101891289D01*
X143550643Y-101898454D01*
X143528364Y-101900648D01*
X143491636Y-101900648D01*
X143469357Y-101898454D01*
X143433338Y-101891289D01*
X143411914Y-101884791D01*
X143377980Y-101870734D01*
X143372539Y-101867826D01*
X143363680Y-101863091D01*
X143363677Y-101863089D01*
X143358242Y-101860184D01*
X143327692Y-101839771D01*
X143310401Y-101825582D01*
X143284418Y-101799599D01*
X143270229Y-101782308D01*
X143249816Y-101751758D01*
X143239266Y-101732020D01*
X143225209Y-101698086D01*
X143218711Y-101676662D01*
X143211546Y-101640643D01*
X143209352Y-101618364D01*
X143209352Y-101581636D01*
X143211546Y-101559357D01*
X143218711Y-101523338D01*
X143225209Y-101501914D01*
X143239266Y-101467980D01*
X143249816Y-101448242D01*
X143270229Y-101417692D01*
X143284418Y-101400401D01*
X143310401Y-101374418D01*
X143327692Y-101360229D01*
X143358242Y-101339816D01*
X143363677Y-101336911D01*
X143363680Y-101336909D01*
X143372539Y-101332174D01*
X143372541Y-101332173D01*
X143377980Y-101329266D01*
X143411914Y-101315209D01*
X143433338Y-101308711D01*
X143469357Y-101301546D01*
X143491636Y-101299352D01*
X143528364Y-101299352D01*
X143550643Y-101301546D01*
X143550643Y-101301546D01*
G37*
G36*
X147360643Y-101301546D02*
G01*
X147396662Y-101308711D01*
X147418086Y-101315209D01*
X147452020Y-101329266D01*
X147457459Y-101332173D01*
X147457461Y-101332174D01*
X147466320Y-101336909D01*
X147466323Y-101336911D01*
X147471758Y-101339816D01*
X147502308Y-101360229D01*
X147519599Y-101374418D01*
X147545582Y-101400401D01*
X147559771Y-101417692D01*
X147580184Y-101448242D01*
X147590734Y-101467980D01*
X147604791Y-101501914D01*
X147611289Y-101523338D01*
X147618454Y-101559357D01*
X147620648Y-101581636D01*
X147620648Y-101618364D01*
X147618454Y-101640643D01*
X147611289Y-101676662D01*
X147604791Y-101698086D01*
X147590734Y-101732020D01*
X147580184Y-101751758D01*
X147559771Y-101782308D01*
X147545582Y-101799599D01*
X147519599Y-101825582D01*
X147502308Y-101839771D01*
X147471758Y-101860184D01*
X147466323Y-101863089D01*
X147466320Y-101863091D01*
X147457461Y-101867826D01*
X147452020Y-101870734D01*
X147418086Y-101884791D01*
X147396662Y-101891289D01*
X147360643Y-101898454D01*
X147338364Y-101900648D01*
X147301636Y-101900648D01*
X147279357Y-101898454D01*
X147243338Y-101891289D01*
X147221914Y-101884791D01*
X147187980Y-101870734D01*
X147182539Y-101867826D01*
X147173680Y-101863091D01*
X147173677Y-101863089D01*
X147168242Y-101860184D01*
X147137692Y-101839771D01*
X147120401Y-101825582D01*
X147094418Y-101799599D01*
X147080229Y-101782308D01*
X147059816Y-101751758D01*
X147049266Y-101732020D01*
X147035209Y-101698086D01*
X147028711Y-101676662D01*
X147021546Y-101640643D01*
X147019352Y-101618364D01*
X147019352Y-101581636D01*
X147021546Y-101559357D01*
X147028711Y-101523338D01*
X147035209Y-101501914D01*
X147049266Y-101467980D01*
X147059816Y-101448242D01*
X147080229Y-101417692D01*
X147094418Y-101400401D01*
X147120401Y-101374418D01*
X147137692Y-101360229D01*
X147168242Y-101339816D01*
X147173677Y-101336911D01*
X147173680Y-101336909D01*
X147182539Y-101332174D01*
X147182541Y-101332173D01*
X147187980Y-101329266D01*
X147221914Y-101315209D01*
X147243338Y-101308711D01*
X147279357Y-101301546D01*
X147301636Y-101299352D01*
X147338364Y-101299352D01*
X147360643Y-101301546D01*
X147360643Y-101301546D01*
G37*
G36*
X151170643Y-101301546D02*
G01*
X151206662Y-101308711D01*
X151228086Y-101315209D01*
X151262020Y-101329266D01*
X151267459Y-101332173D01*
X151267461Y-101332174D01*
X151276320Y-101336909D01*
X151276323Y-101336911D01*
X151281758Y-101339816D01*
X151312308Y-101360229D01*
X151329599Y-101374418D01*
X151355582Y-101400401D01*
X151369771Y-101417692D01*
X151390184Y-101448242D01*
X151400734Y-101467980D01*
X151414791Y-101501914D01*
X151421289Y-101523338D01*
X151428454Y-101559357D01*
X151430648Y-101581636D01*
X151430648Y-101618364D01*
X151428454Y-101640643D01*
X151421289Y-101676662D01*
X151414791Y-101698086D01*
X151400734Y-101732020D01*
X151390184Y-101751758D01*
X151369771Y-101782308D01*
X151355582Y-101799599D01*
X151329599Y-101825582D01*
X151312308Y-101839771D01*
X151281758Y-101860184D01*
X151276323Y-101863089D01*
X151276320Y-101863091D01*
X151267461Y-101867826D01*
X151262020Y-101870734D01*
X151228086Y-101884791D01*
X151206662Y-101891289D01*
X151170643Y-101898454D01*
X151148364Y-101900648D01*
X151111636Y-101900648D01*
X151089357Y-101898454D01*
X151053338Y-101891289D01*
X151031914Y-101884791D01*
X150997980Y-101870734D01*
X150992539Y-101867826D01*
X150983680Y-101863091D01*
X150983677Y-101863089D01*
X150978242Y-101860184D01*
X150947692Y-101839771D01*
X150930401Y-101825582D01*
X150904418Y-101799599D01*
X150890229Y-101782308D01*
X150869816Y-101751758D01*
X150859266Y-101732020D01*
X150845209Y-101698086D01*
X150838711Y-101676662D01*
X150831546Y-101640643D01*
X150829352Y-101618364D01*
X150829352Y-101581636D01*
X150831546Y-101559357D01*
X150838711Y-101523338D01*
X150845209Y-101501914D01*
X150859266Y-101467980D01*
X150869816Y-101448242D01*
X150890229Y-101417692D01*
X150904418Y-101400401D01*
X150930401Y-101374418D01*
X150947692Y-101360229D01*
X150978242Y-101339816D01*
X150983677Y-101336911D01*
X150983680Y-101336909D01*
X150992539Y-101332174D01*
X150992541Y-101332173D01*
X150997980Y-101329266D01*
X151031914Y-101315209D01*
X151053338Y-101308711D01*
X151089357Y-101301546D01*
X151111636Y-101299352D01*
X151148364Y-101299352D01*
X151170643Y-101301546D01*
X151170643Y-101301546D01*
G37*
G36*
X139740643Y-101301546D02*
G01*
X139776662Y-101308711D01*
X139798086Y-101315209D01*
X139832020Y-101329266D01*
X139837459Y-101332173D01*
X139837461Y-101332174D01*
X139846320Y-101336909D01*
X139846323Y-101336911D01*
X139851758Y-101339816D01*
X139882308Y-101360229D01*
X139899599Y-101374418D01*
X139925582Y-101400401D01*
X139939771Y-101417692D01*
X139960184Y-101448242D01*
X139970734Y-101467980D01*
X139984791Y-101501914D01*
X139991289Y-101523338D01*
X139998454Y-101559357D01*
X140000648Y-101581636D01*
X140000648Y-101618364D01*
X139998454Y-101640643D01*
X139991289Y-101676662D01*
X139984791Y-101698086D01*
X139970734Y-101732020D01*
X139960184Y-101751758D01*
X139939771Y-101782308D01*
X139925582Y-101799599D01*
X139899599Y-101825582D01*
X139882308Y-101839771D01*
X139851758Y-101860184D01*
X139846323Y-101863089D01*
X139846320Y-101863091D01*
X139837461Y-101867826D01*
X139832020Y-101870734D01*
X139798086Y-101884791D01*
X139776662Y-101891289D01*
X139740643Y-101898454D01*
X139718364Y-101900648D01*
X139681636Y-101900648D01*
X139659357Y-101898454D01*
X139623338Y-101891289D01*
X139601914Y-101884791D01*
X139567980Y-101870734D01*
X139562539Y-101867826D01*
X139553680Y-101863091D01*
X139553677Y-101863089D01*
X139548242Y-101860184D01*
X139517692Y-101839771D01*
X139500401Y-101825582D01*
X139474418Y-101799599D01*
X139460229Y-101782308D01*
X139439816Y-101751758D01*
X139429266Y-101732020D01*
X139415209Y-101698086D01*
X139408711Y-101676662D01*
X139401546Y-101640643D01*
X139399352Y-101618364D01*
X139399352Y-101581636D01*
X139401546Y-101559357D01*
X139408711Y-101523338D01*
X139415209Y-101501914D01*
X139429266Y-101467980D01*
X139439816Y-101448242D01*
X139460229Y-101417692D01*
X139474418Y-101400401D01*
X139500401Y-101374418D01*
X139517692Y-101360229D01*
X139548242Y-101339816D01*
X139553677Y-101336911D01*
X139553680Y-101336909D01*
X139562539Y-101332174D01*
X139562541Y-101332173D01*
X139567980Y-101329266D01*
X139601914Y-101315209D01*
X139623338Y-101308711D01*
X139659357Y-101301546D01*
X139681636Y-101299352D01*
X139718364Y-101299352D01*
X139740643Y-101301546D01*
X139740643Y-101301546D01*
G37*
G36*
X124500643Y-101301546D02*
G01*
X124536662Y-101308711D01*
X124558086Y-101315209D01*
X124592020Y-101329266D01*
X124597459Y-101332173D01*
X124597461Y-101332174D01*
X124606320Y-101336909D01*
X124606323Y-101336911D01*
X124611758Y-101339816D01*
X124642308Y-101360229D01*
X124659599Y-101374418D01*
X124685582Y-101400401D01*
X124699771Y-101417692D01*
X124720184Y-101448242D01*
X124730734Y-101467980D01*
X124744791Y-101501914D01*
X124751289Y-101523338D01*
X124758454Y-101559357D01*
X124760648Y-101581636D01*
X124760648Y-101618364D01*
X124758454Y-101640643D01*
X124751289Y-101676662D01*
X124744791Y-101698086D01*
X124730734Y-101732020D01*
X124720184Y-101751758D01*
X124699771Y-101782308D01*
X124685582Y-101799599D01*
X124659599Y-101825582D01*
X124642308Y-101839771D01*
X124611758Y-101860184D01*
X124606323Y-101863089D01*
X124606320Y-101863091D01*
X124597461Y-101867826D01*
X124592020Y-101870734D01*
X124558086Y-101884791D01*
X124536662Y-101891289D01*
X124500643Y-101898454D01*
X124478364Y-101900648D01*
X124441636Y-101900648D01*
X124419357Y-101898454D01*
X124383338Y-101891289D01*
X124361914Y-101884791D01*
X124327980Y-101870734D01*
X124322539Y-101867826D01*
X124313680Y-101863091D01*
X124313677Y-101863089D01*
X124308242Y-101860184D01*
X124277692Y-101839771D01*
X124260401Y-101825582D01*
X124234418Y-101799599D01*
X124220229Y-101782308D01*
X124199816Y-101751758D01*
X124189266Y-101732020D01*
X124175209Y-101698086D01*
X124168711Y-101676662D01*
X124161546Y-101640643D01*
X124159352Y-101618364D01*
X124159352Y-101581636D01*
X124161546Y-101559357D01*
X124168711Y-101523338D01*
X124175209Y-101501914D01*
X124189266Y-101467980D01*
X124199816Y-101448242D01*
X124220229Y-101417692D01*
X124234418Y-101400401D01*
X124260401Y-101374418D01*
X124277692Y-101360229D01*
X124308242Y-101339816D01*
X124313677Y-101336911D01*
X124313680Y-101336909D01*
X124322539Y-101332174D01*
X124322541Y-101332173D01*
X124327980Y-101329266D01*
X124361914Y-101315209D01*
X124383338Y-101308711D01*
X124419357Y-101301546D01*
X124441636Y-101299352D01*
X124478364Y-101299352D01*
X124500643Y-101301546D01*
X124500643Y-101301546D01*
G37*
G36*
X128310643Y-101301546D02*
G01*
X128346662Y-101308711D01*
X128368086Y-101315209D01*
X128402020Y-101329266D01*
X128407459Y-101332173D01*
X128407461Y-101332174D01*
X128416320Y-101336909D01*
X128416323Y-101336911D01*
X128421758Y-101339816D01*
X128452308Y-101360229D01*
X128469599Y-101374418D01*
X128495582Y-101400401D01*
X128509771Y-101417692D01*
X128530184Y-101448242D01*
X128540734Y-101467980D01*
X128554791Y-101501914D01*
X128561289Y-101523338D01*
X128568454Y-101559357D01*
X128570648Y-101581636D01*
X128570648Y-101618364D01*
X128568454Y-101640643D01*
X128561289Y-101676662D01*
X128554791Y-101698086D01*
X128540734Y-101732020D01*
X128530184Y-101751758D01*
X128509771Y-101782308D01*
X128495582Y-101799599D01*
X128469599Y-101825582D01*
X128452308Y-101839771D01*
X128421758Y-101860184D01*
X128416323Y-101863089D01*
X128416320Y-101863091D01*
X128407461Y-101867826D01*
X128402020Y-101870734D01*
X128368086Y-101884791D01*
X128346662Y-101891289D01*
X128310643Y-101898454D01*
X128288364Y-101900648D01*
X128251636Y-101900648D01*
X128229357Y-101898454D01*
X128193338Y-101891289D01*
X128171914Y-101884791D01*
X128137980Y-101870734D01*
X128132539Y-101867826D01*
X128123680Y-101863091D01*
X128123677Y-101863089D01*
X128118242Y-101860184D01*
X128087692Y-101839771D01*
X128070401Y-101825582D01*
X128044418Y-101799599D01*
X128030229Y-101782308D01*
X128009816Y-101751758D01*
X127999266Y-101732020D01*
X127985209Y-101698086D01*
X127978711Y-101676662D01*
X127971546Y-101640643D01*
X127969352Y-101618364D01*
X127969352Y-101581636D01*
X127971546Y-101559357D01*
X127978711Y-101523338D01*
X127985209Y-101501914D01*
X127999266Y-101467980D01*
X128009816Y-101448242D01*
X128030229Y-101417692D01*
X128044418Y-101400401D01*
X128070401Y-101374418D01*
X128087692Y-101360229D01*
X128118242Y-101339816D01*
X128123677Y-101336911D01*
X128123680Y-101336909D01*
X128132539Y-101332174D01*
X128132541Y-101332173D01*
X128137980Y-101329266D01*
X128171914Y-101315209D01*
X128193338Y-101308711D01*
X128229357Y-101301546D01*
X128251636Y-101299352D01*
X128288364Y-101299352D01*
X128310643Y-101301546D01*
X128310643Y-101301546D01*
G37*
G36*
X132120643Y-101301546D02*
G01*
X132156662Y-101308711D01*
X132178086Y-101315209D01*
X132212020Y-101329266D01*
X132217459Y-101332173D01*
X132217461Y-101332174D01*
X132226320Y-101336909D01*
X132226323Y-101336911D01*
X132231758Y-101339816D01*
X132262308Y-101360229D01*
X132279599Y-101374418D01*
X132305582Y-101400401D01*
X132319771Y-101417692D01*
X132340184Y-101448242D01*
X132350734Y-101467980D01*
X132364791Y-101501914D01*
X132371289Y-101523338D01*
X132378454Y-101559357D01*
X132380648Y-101581636D01*
X132380648Y-101618364D01*
X132378454Y-101640643D01*
X132371289Y-101676662D01*
X132364791Y-101698086D01*
X132350734Y-101732020D01*
X132340184Y-101751758D01*
X132319771Y-101782308D01*
X132305582Y-101799599D01*
X132279599Y-101825582D01*
X132262308Y-101839771D01*
X132231758Y-101860184D01*
X132226323Y-101863089D01*
X132226320Y-101863091D01*
X132217461Y-101867826D01*
X132212020Y-101870734D01*
X132178086Y-101884791D01*
X132156662Y-101891289D01*
X132120643Y-101898454D01*
X132098364Y-101900648D01*
X132061636Y-101900648D01*
X132039357Y-101898454D01*
X132003338Y-101891289D01*
X131981914Y-101884791D01*
X131947980Y-101870734D01*
X131942539Y-101867826D01*
X131933680Y-101863091D01*
X131933677Y-101863089D01*
X131928242Y-101860184D01*
X131897692Y-101839771D01*
X131880401Y-101825582D01*
X131854418Y-101799599D01*
X131840229Y-101782308D01*
X131819816Y-101751758D01*
X131809266Y-101732020D01*
X131795209Y-101698086D01*
X131788711Y-101676662D01*
X131781546Y-101640643D01*
X131779352Y-101618364D01*
X131779352Y-101581636D01*
X131781546Y-101559357D01*
X131788711Y-101523338D01*
X131795209Y-101501914D01*
X131809266Y-101467980D01*
X131819816Y-101448242D01*
X131840229Y-101417692D01*
X131854418Y-101400401D01*
X131880401Y-101374418D01*
X131897692Y-101360229D01*
X131928242Y-101339816D01*
X131933677Y-101336911D01*
X131933680Y-101336909D01*
X131942539Y-101332174D01*
X131942541Y-101332173D01*
X131947980Y-101329266D01*
X131981914Y-101315209D01*
X132003338Y-101308711D01*
X132039357Y-101301546D01*
X132061636Y-101299352D01*
X132098364Y-101299352D01*
X132120643Y-101301546D01*
X132120643Y-101301546D01*
G37*
G36*
X135930643Y-101301546D02*
G01*
X135966662Y-101308711D01*
X135988086Y-101315209D01*
X136022020Y-101329266D01*
X136027459Y-101332173D01*
X136027461Y-101332174D01*
X136036320Y-101336909D01*
X136036323Y-101336911D01*
X136041758Y-101339816D01*
X136072308Y-101360229D01*
X136089599Y-101374418D01*
X136115582Y-101400401D01*
X136129771Y-101417692D01*
X136150184Y-101448242D01*
X136160734Y-101467980D01*
X136174791Y-101501914D01*
X136181289Y-101523338D01*
X136188454Y-101559357D01*
X136190648Y-101581636D01*
X136190648Y-101618364D01*
X136188454Y-101640643D01*
X136181289Y-101676662D01*
X136174791Y-101698086D01*
X136160734Y-101732020D01*
X136150184Y-101751758D01*
X136129771Y-101782308D01*
X136115582Y-101799599D01*
X136089599Y-101825582D01*
X136072308Y-101839771D01*
X136041758Y-101860184D01*
X136036323Y-101863089D01*
X136036320Y-101863091D01*
X136027461Y-101867826D01*
X136022020Y-101870734D01*
X135988086Y-101884791D01*
X135966662Y-101891289D01*
X135930643Y-101898454D01*
X135908364Y-101900648D01*
X135871636Y-101900648D01*
X135849357Y-101898454D01*
X135813338Y-101891289D01*
X135791914Y-101884791D01*
X135757980Y-101870734D01*
X135752539Y-101867826D01*
X135743680Y-101863091D01*
X135743677Y-101863089D01*
X135738242Y-101860184D01*
X135707692Y-101839771D01*
X135690401Y-101825582D01*
X135664418Y-101799599D01*
X135650229Y-101782308D01*
X135629816Y-101751758D01*
X135619266Y-101732020D01*
X135605209Y-101698086D01*
X135598711Y-101676662D01*
X135591546Y-101640643D01*
X135589352Y-101618364D01*
X135589352Y-101581636D01*
X135591546Y-101559357D01*
X135598711Y-101523338D01*
X135605209Y-101501914D01*
X135619266Y-101467980D01*
X135629816Y-101448242D01*
X135650229Y-101417692D01*
X135664418Y-101400401D01*
X135690401Y-101374418D01*
X135707692Y-101360229D01*
X135738242Y-101339816D01*
X135743677Y-101336911D01*
X135743680Y-101336909D01*
X135752539Y-101332174D01*
X135752541Y-101332173D01*
X135757980Y-101329266D01*
X135791914Y-101315209D01*
X135813338Y-101308711D01*
X135849357Y-101301546D01*
X135871636Y-101299352D01*
X135908364Y-101299352D01*
X135930643Y-101301546D01*
X135930643Y-101301546D01*
G37*
G36*
X177910443Y-98165519D02*
G01*
X177976627Y-98172037D01*
X178146466Y-98223557D01*
X178302991Y-98307222D01*
X178338729Y-98336552D01*
X178440186Y-98419814D01*
X178523448Y-98521271D01*
X178552778Y-98557009D01*
X178636443Y-98713534D01*
X178687963Y-98883373D01*
X178705359Y-99060000D01*
X178687963Y-99236627D01*
X178636443Y-99406466D01*
X178552778Y-99562991D01*
X178523448Y-99598729D01*
X178440186Y-99700186D01*
X178338729Y-99783448D01*
X178302991Y-99812778D01*
X178146466Y-99896443D01*
X177976627Y-99947963D01*
X177910443Y-99954481D01*
X177844260Y-99961000D01*
X177755740Y-99961000D01*
X177689557Y-99954481D01*
X177623373Y-99947963D01*
X177453534Y-99896443D01*
X177297009Y-99812778D01*
X177261271Y-99783448D01*
X177159814Y-99700186D01*
X177076552Y-99598729D01*
X177047222Y-99562991D01*
X176963557Y-99406466D01*
X176912037Y-99236627D01*
X176894641Y-99060000D01*
X176912037Y-98883373D01*
X176963557Y-98713534D01*
X177047222Y-98557009D01*
X177076552Y-98521271D01*
X177159814Y-98419814D01*
X177261271Y-98336552D01*
X177297009Y-98307222D01*
X177453534Y-98223557D01*
X177623373Y-98172037D01*
X177689557Y-98165519D01*
X177755740Y-98159000D01*
X177844260Y-98159000D01*
X177910443Y-98165519D01*
X177910443Y-98165519D01*
G37*
G36*
X175370443Y-98165519D02*
G01*
X175436627Y-98172037D01*
X175606466Y-98223557D01*
X175762991Y-98307222D01*
X175798729Y-98336552D01*
X175900186Y-98419814D01*
X175983448Y-98521271D01*
X176012778Y-98557009D01*
X176096443Y-98713534D01*
X176147963Y-98883373D01*
X176165359Y-99060000D01*
X176147963Y-99236627D01*
X176096443Y-99406466D01*
X176012778Y-99562991D01*
X175983448Y-99598729D01*
X175900186Y-99700186D01*
X175798729Y-99783448D01*
X175762991Y-99812778D01*
X175606466Y-99896443D01*
X175436627Y-99947963D01*
X175370443Y-99954481D01*
X175304260Y-99961000D01*
X175215740Y-99961000D01*
X175149557Y-99954481D01*
X175083373Y-99947963D01*
X174913534Y-99896443D01*
X174757009Y-99812778D01*
X174721271Y-99783448D01*
X174619814Y-99700186D01*
X174536552Y-99598729D01*
X174507222Y-99562991D01*
X174423557Y-99406466D01*
X174372037Y-99236627D01*
X174354641Y-99060000D01*
X174372037Y-98883373D01*
X174423557Y-98713534D01*
X174507222Y-98557009D01*
X174536552Y-98521271D01*
X174619814Y-98419814D01*
X174721271Y-98336552D01*
X174757009Y-98307222D01*
X174913534Y-98223557D01*
X175083373Y-98172037D01*
X175149557Y-98165519D01*
X175215740Y-98159000D01*
X175304260Y-98159000D01*
X175370443Y-98165519D01*
X175370443Y-98165519D01*
G37*
G36*
X177910442Y-95625518D02*
G01*
X177976627Y-95632037D01*
X178146466Y-95683557D01*
X178302991Y-95767222D01*
X178338729Y-95796552D01*
X178440186Y-95879814D01*
X178523448Y-95981271D01*
X178552778Y-96017009D01*
X178636443Y-96173534D01*
X178687963Y-96343373D01*
X178705359Y-96520000D01*
X178687963Y-96696627D01*
X178636443Y-96866466D01*
X178552778Y-97022991D01*
X178523448Y-97058729D01*
X178440186Y-97160186D01*
X178338729Y-97243448D01*
X178302991Y-97272778D01*
X178146466Y-97356443D01*
X177976627Y-97407963D01*
X177910442Y-97414482D01*
X177844260Y-97421000D01*
X177755740Y-97421000D01*
X177689558Y-97414482D01*
X177623373Y-97407963D01*
X177453534Y-97356443D01*
X177297009Y-97272778D01*
X177261271Y-97243448D01*
X177159814Y-97160186D01*
X177076552Y-97058729D01*
X177047222Y-97022991D01*
X176963557Y-96866466D01*
X176912037Y-96696627D01*
X176894641Y-96520000D01*
X176912037Y-96343373D01*
X176963557Y-96173534D01*
X177047222Y-96017009D01*
X177076552Y-95981271D01*
X177159814Y-95879814D01*
X177261271Y-95796552D01*
X177297009Y-95767222D01*
X177453534Y-95683557D01*
X177623373Y-95632037D01*
X177689558Y-95625518D01*
X177755740Y-95619000D01*
X177844260Y-95619000D01*
X177910442Y-95625518D01*
X177910442Y-95625518D01*
G37*
G36*
X175370442Y-95625518D02*
G01*
X175436627Y-95632037D01*
X175606466Y-95683557D01*
X175762991Y-95767222D01*
X175798729Y-95796552D01*
X175900186Y-95879814D01*
X175983448Y-95981271D01*
X176012778Y-96017009D01*
X176096443Y-96173534D01*
X176147963Y-96343373D01*
X176165359Y-96520000D01*
X176147963Y-96696627D01*
X176096443Y-96866466D01*
X176012778Y-97022991D01*
X175983448Y-97058729D01*
X175900186Y-97160186D01*
X175798729Y-97243448D01*
X175762991Y-97272778D01*
X175606466Y-97356443D01*
X175436627Y-97407963D01*
X175370442Y-97414482D01*
X175304260Y-97421000D01*
X175215740Y-97421000D01*
X175149558Y-97414482D01*
X175083373Y-97407963D01*
X174913534Y-97356443D01*
X174757009Y-97272778D01*
X174721271Y-97243448D01*
X174619814Y-97160186D01*
X174536552Y-97058729D01*
X174507222Y-97022991D01*
X174423557Y-96866466D01*
X174372037Y-96696627D01*
X174354641Y-96520000D01*
X174372037Y-96343373D01*
X174423557Y-96173534D01*
X174507222Y-96017009D01*
X174536552Y-95981271D01*
X174619814Y-95879814D01*
X174721271Y-95796552D01*
X174757009Y-95767222D01*
X174913534Y-95683557D01*
X175083373Y-95632037D01*
X175149558Y-95625518D01*
X175215740Y-95619000D01*
X175304260Y-95619000D01*
X175370442Y-95625518D01*
X175370442Y-95625518D01*
G37*
G36*
X177910443Y-93085519D02*
G01*
X177976627Y-93092037D01*
X178146466Y-93143557D01*
X178302991Y-93227222D01*
X178338729Y-93256552D01*
X178440186Y-93339814D01*
X178523448Y-93441271D01*
X178552778Y-93477009D01*
X178636443Y-93633534D01*
X178687963Y-93803373D01*
X178705359Y-93980000D01*
X178687963Y-94156627D01*
X178636443Y-94326466D01*
X178552778Y-94482991D01*
X178523448Y-94518729D01*
X178440186Y-94620186D01*
X178338729Y-94703448D01*
X178302991Y-94732778D01*
X178146466Y-94816443D01*
X177976627Y-94867963D01*
X177910443Y-94874481D01*
X177844260Y-94881000D01*
X177755740Y-94881000D01*
X177689557Y-94874481D01*
X177623373Y-94867963D01*
X177453534Y-94816443D01*
X177297009Y-94732778D01*
X177261271Y-94703448D01*
X177159814Y-94620186D01*
X177076552Y-94518729D01*
X177047222Y-94482991D01*
X176963557Y-94326466D01*
X176912037Y-94156627D01*
X176894641Y-93980000D01*
X176912037Y-93803373D01*
X176963557Y-93633534D01*
X177047222Y-93477009D01*
X177076552Y-93441271D01*
X177159814Y-93339814D01*
X177261271Y-93256552D01*
X177297009Y-93227222D01*
X177453534Y-93143557D01*
X177623373Y-93092037D01*
X177689557Y-93085519D01*
X177755740Y-93079000D01*
X177844260Y-93079000D01*
X177910443Y-93085519D01*
X177910443Y-93085519D01*
G37*
G36*
X176161000Y-94881000D02*
G01*
X174359000Y-94881000D01*
X174359000Y-93079000D01*
X176161000Y-93079000D01*
X176161000Y-94881000D01*
X176161000Y-94881000D01*
G37*
G36*
X118485256Y-91101298D02*
G01*
X118591579Y-91122447D01*
X118892042Y-91246903D01*
X119162451Y-91427585D01*
X119392415Y-91657549D01*
X119573097Y-91927958D01*
X119697553Y-92228421D01*
X119761000Y-92547391D01*
X119761000Y-92872609D01*
X119697553Y-93191579D01*
X119573097Y-93492042D01*
X119392415Y-93762451D01*
X119162451Y-93992415D01*
X118892042Y-94173097D01*
X118591579Y-94297553D01*
X118485256Y-94318702D01*
X118272611Y-94361000D01*
X117947389Y-94361000D01*
X117734744Y-94318702D01*
X117628421Y-94297553D01*
X117327958Y-94173097D01*
X117057549Y-93992415D01*
X116827585Y-93762451D01*
X116646903Y-93492042D01*
X116522447Y-93191579D01*
X116459000Y-92872609D01*
X116459000Y-92547391D01*
X116522447Y-92228421D01*
X116646903Y-91927958D01*
X116827585Y-91657549D01*
X117057549Y-91427585D01*
X117327958Y-91246903D01*
X117628421Y-91122447D01*
X117734744Y-91101298D01*
X117947389Y-91059000D01*
X118272611Y-91059000D01*
X118485256Y-91101298D01*
X118485256Y-91101298D01*
G37*
G36*
X164840256Y-91101298D02*
G01*
X164946579Y-91122447D01*
X165247042Y-91246903D01*
X165517451Y-91427585D01*
X165747415Y-91657549D01*
X165928097Y-91927958D01*
X166052553Y-92228421D01*
X166116000Y-92547391D01*
X166116000Y-92872609D01*
X166052553Y-93191579D01*
X165928097Y-93492042D01*
X165747415Y-93762451D01*
X165517451Y-93992415D01*
X165247042Y-94173097D01*
X164946579Y-94297553D01*
X164840256Y-94318702D01*
X164627611Y-94361000D01*
X164302389Y-94361000D01*
X164089744Y-94318702D01*
X163983421Y-94297553D01*
X163682958Y-94173097D01*
X163412549Y-93992415D01*
X163182585Y-93762451D01*
X163001903Y-93492042D01*
X162877447Y-93191579D01*
X162814000Y-92872609D01*
X162814000Y-92547391D01*
X162877447Y-92228421D01*
X163001903Y-91927958D01*
X163182585Y-91657549D01*
X163412549Y-91427585D01*
X163682958Y-91246903D01*
X163983421Y-91122447D01*
X164089744Y-91101298D01*
X164302389Y-91059000D01*
X164627611Y-91059000D01*
X164840256Y-91101298D01*
X164840256Y-91101298D01*
G37*
M02*
