G04 #@! TF.GenerationSoftware,KiCad,Pcbnew,5.1.4-e60b266~84~ubuntu18.04.1*
G04 #@! TF.CreationDate,2019-11-10T13:24:48-08:00*
G04 #@! TF.ProjectId,mic,6d69632e-6b69-4636-9164-5f7063625858,rev?*
G04 #@! TF.SameCoordinates,Original*
G04 #@! TF.FileFunction,Paste,Top*
G04 #@! TF.FilePolarity,Positive*
%FSLAX46Y46*%
G04 Gerber Fmt 4.6, Leading zero omitted, Abs format (unit mm)*
G04 Created by KiCad (PCBNEW 5.1.4-e60b266~84~ubuntu18.04.1) date 2019-11-10 13:24:48*
%MOMM*%
%LPD*%
G04 APERTURE LIST*
%ADD10C,0.100000*%
%ADD11C,0.875000*%
%ADD12R,0.725000X0.522000*%
%ADD13C,0.300000*%
G04 APERTURE END LIST*
D10*
G36*
X120102691Y-103666053D02*
G01*
X120123926Y-103669203D01*
X120144750Y-103674419D01*
X120164962Y-103681651D01*
X120184368Y-103690830D01*
X120202781Y-103701866D01*
X120220024Y-103714654D01*
X120235930Y-103729070D01*
X120250346Y-103744976D01*
X120263134Y-103762219D01*
X120274170Y-103780632D01*
X120283349Y-103800038D01*
X120290581Y-103820250D01*
X120295797Y-103841074D01*
X120298947Y-103862309D01*
X120300000Y-103883750D01*
X120300000Y-104396250D01*
X120298947Y-104417691D01*
X120295797Y-104438926D01*
X120290581Y-104459750D01*
X120283349Y-104479962D01*
X120274170Y-104499368D01*
X120263134Y-104517781D01*
X120250346Y-104535024D01*
X120235930Y-104550930D01*
X120220024Y-104565346D01*
X120202781Y-104578134D01*
X120184368Y-104589170D01*
X120164962Y-104598349D01*
X120144750Y-104605581D01*
X120123926Y-104610797D01*
X120102691Y-104613947D01*
X120081250Y-104615000D01*
X119643750Y-104615000D01*
X119622309Y-104613947D01*
X119601074Y-104610797D01*
X119580250Y-104605581D01*
X119560038Y-104598349D01*
X119540632Y-104589170D01*
X119522219Y-104578134D01*
X119504976Y-104565346D01*
X119489070Y-104550930D01*
X119474654Y-104535024D01*
X119461866Y-104517781D01*
X119450830Y-104499368D01*
X119441651Y-104479962D01*
X119434419Y-104459750D01*
X119429203Y-104438926D01*
X119426053Y-104417691D01*
X119425000Y-104396250D01*
X119425000Y-103883750D01*
X119426053Y-103862309D01*
X119429203Y-103841074D01*
X119434419Y-103820250D01*
X119441651Y-103800038D01*
X119450830Y-103780632D01*
X119461866Y-103762219D01*
X119474654Y-103744976D01*
X119489070Y-103729070D01*
X119504976Y-103714654D01*
X119522219Y-103701866D01*
X119540632Y-103690830D01*
X119560038Y-103681651D01*
X119580250Y-103674419D01*
X119601074Y-103669203D01*
X119622309Y-103666053D01*
X119643750Y-103665000D01*
X120081250Y-103665000D01*
X120102691Y-103666053D01*
X120102691Y-103666053D01*
G37*
D11*
X119862500Y-104140000D03*
D10*
G36*
X121677691Y-103666053D02*
G01*
X121698926Y-103669203D01*
X121719750Y-103674419D01*
X121739962Y-103681651D01*
X121759368Y-103690830D01*
X121777781Y-103701866D01*
X121795024Y-103714654D01*
X121810930Y-103729070D01*
X121825346Y-103744976D01*
X121838134Y-103762219D01*
X121849170Y-103780632D01*
X121858349Y-103800038D01*
X121865581Y-103820250D01*
X121870797Y-103841074D01*
X121873947Y-103862309D01*
X121875000Y-103883750D01*
X121875000Y-104396250D01*
X121873947Y-104417691D01*
X121870797Y-104438926D01*
X121865581Y-104459750D01*
X121858349Y-104479962D01*
X121849170Y-104499368D01*
X121838134Y-104517781D01*
X121825346Y-104535024D01*
X121810930Y-104550930D01*
X121795024Y-104565346D01*
X121777781Y-104578134D01*
X121759368Y-104589170D01*
X121739962Y-104598349D01*
X121719750Y-104605581D01*
X121698926Y-104610797D01*
X121677691Y-104613947D01*
X121656250Y-104615000D01*
X121218750Y-104615000D01*
X121197309Y-104613947D01*
X121176074Y-104610797D01*
X121155250Y-104605581D01*
X121135038Y-104598349D01*
X121115632Y-104589170D01*
X121097219Y-104578134D01*
X121079976Y-104565346D01*
X121064070Y-104550930D01*
X121049654Y-104535024D01*
X121036866Y-104517781D01*
X121025830Y-104499368D01*
X121016651Y-104479962D01*
X121009419Y-104459750D01*
X121004203Y-104438926D01*
X121001053Y-104417691D01*
X121000000Y-104396250D01*
X121000000Y-103883750D01*
X121001053Y-103862309D01*
X121004203Y-103841074D01*
X121009419Y-103820250D01*
X121016651Y-103800038D01*
X121025830Y-103780632D01*
X121036866Y-103762219D01*
X121049654Y-103744976D01*
X121064070Y-103729070D01*
X121079976Y-103714654D01*
X121097219Y-103701866D01*
X121115632Y-103690830D01*
X121135038Y-103681651D01*
X121155250Y-103674419D01*
X121176074Y-103669203D01*
X121197309Y-103666053D01*
X121218750Y-103665000D01*
X121656250Y-103665000D01*
X121677691Y-103666053D01*
X121677691Y-103666053D01*
G37*
D11*
X121437500Y-104140000D03*
D10*
G36*
X146772691Y-103666053D02*
G01*
X146793926Y-103669203D01*
X146814750Y-103674419D01*
X146834962Y-103681651D01*
X146854368Y-103690830D01*
X146872781Y-103701866D01*
X146890024Y-103714654D01*
X146905930Y-103729070D01*
X146920346Y-103744976D01*
X146933134Y-103762219D01*
X146944170Y-103780632D01*
X146953349Y-103800038D01*
X146960581Y-103820250D01*
X146965797Y-103841074D01*
X146968947Y-103862309D01*
X146970000Y-103883750D01*
X146970000Y-104396250D01*
X146968947Y-104417691D01*
X146965797Y-104438926D01*
X146960581Y-104459750D01*
X146953349Y-104479962D01*
X146944170Y-104499368D01*
X146933134Y-104517781D01*
X146920346Y-104535024D01*
X146905930Y-104550930D01*
X146890024Y-104565346D01*
X146872781Y-104578134D01*
X146854368Y-104589170D01*
X146834962Y-104598349D01*
X146814750Y-104605581D01*
X146793926Y-104610797D01*
X146772691Y-104613947D01*
X146751250Y-104615000D01*
X146313750Y-104615000D01*
X146292309Y-104613947D01*
X146271074Y-104610797D01*
X146250250Y-104605581D01*
X146230038Y-104598349D01*
X146210632Y-104589170D01*
X146192219Y-104578134D01*
X146174976Y-104565346D01*
X146159070Y-104550930D01*
X146144654Y-104535024D01*
X146131866Y-104517781D01*
X146120830Y-104499368D01*
X146111651Y-104479962D01*
X146104419Y-104459750D01*
X146099203Y-104438926D01*
X146096053Y-104417691D01*
X146095000Y-104396250D01*
X146095000Y-103883750D01*
X146096053Y-103862309D01*
X146099203Y-103841074D01*
X146104419Y-103820250D01*
X146111651Y-103800038D01*
X146120830Y-103780632D01*
X146131866Y-103762219D01*
X146144654Y-103744976D01*
X146159070Y-103729070D01*
X146174976Y-103714654D01*
X146192219Y-103701866D01*
X146210632Y-103690830D01*
X146230038Y-103681651D01*
X146250250Y-103674419D01*
X146271074Y-103669203D01*
X146292309Y-103666053D01*
X146313750Y-103665000D01*
X146751250Y-103665000D01*
X146772691Y-103666053D01*
X146772691Y-103666053D01*
G37*
D11*
X146532500Y-104140000D03*
D10*
G36*
X148347691Y-103666053D02*
G01*
X148368926Y-103669203D01*
X148389750Y-103674419D01*
X148409962Y-103681651D01*
X148429368Y-103690830D01*
X148447781Y-103701866D01*
X148465024Y-103714654D01*
X148480930Y-103729070D01*
X148495346Y-103744976D01*
X148508134Y-103762219D01*
X148519170Y-103780632D01*
X148528349Y-103800038D01*
X148535581Y-103820250D01*
X148540797Y-103841074D01*
X148543947Y-103862309D01*
X148545000Y-103883750D01*
X148545000Y-104396250D01*
X148543947Y-104417691D01*
X148540797Y-104438926D01*
X148535581Y-104459750D01*
X148528349Y-104479962D01*
X148519170Y-104499368D01*
X148508134Y-104517781D01*
X148495346Y-104535024D01*
X148480930Y-104550930D01*
X148465024Y-104565346D01*
X148447781Y-104578134D01*
X148429368Y-104589170D01*
X148409962Y-104598349D01*
X148389750Y-104605581D01*
X148368926Y-104610797D01*
X148347691Y-104613947D01*
X148326250Y-104615000D01*
X147888750Y-104615000D01*
X147867309Y-104613947D01*
X147846074Y-104610797D01*
X147825250Y-104605581D01*
X147805038Y-104598349D01*
X147785632Y-104589170D01*
X147767219Y-104578134D01*
X147749976Y-104565346D01*
X147734070Y-104550930D01*
X147719654Y-104535024D01*
X147706866Y-104517781D01*
X147695830Y-104499368D01*
X147686651Y-104479962D01*
X147679419Y-104459750D01*
X147674203Y-104438926D01*
X147671053Y-104417691D01*
X147670000Y-104396250D01*
X147670000Y-103883750D01*
X147671053Y-103862309D01*
X147674203Y-103841074D01*
X147679419Y-103820250D01*
X147686651Y-103800038D01*
X147695830Y-103780632D01*
X147706866Y-103762219D01*
X147719654Y-103744976D01*
X147734070Y-103729070D01*
X147749976Y-103714654D01*
X147767219Y-103701866D01*
X147785632Y-103690830D01*
X147805038Y-103681651D01*
X147825250Y-103674419D01*
X147846074Y-103669203D01*
X147867309Y-103666053D01*
X147888750Y-103665000D01*
X148326250Y-103665000D01*
X148347691Y-103666053D01*
X148347691Y-103666053D01*
G37*
D11*
X148107500Y-104140000D03*
D10*
G36*
X142962691Y-103666053D02*
G01*
X142983926Y-103669203D01*
X143004750Y-103674419D01*
X143024962Y-103681651D01*
X143044368Y-103690830D01*
X143062781Y-103701866D01*
X143080024Y-103714654D01*
X143095930Y-103729070D01*
X143110346Y-103744976D01*
X143123134Y-103762219D01*
X143134170Y-103780632D01*
X143143349Y-103800038D01*
X143150581Y-103820250D01*
X143155797Y-103841074D01*
X143158947Y-103862309D01*
X143160000Y-103883750D01*
X143160000Y-104396250D01*
X143158947Y-104417691D01*
X143155797Y-104438926D01*
X143150581Y-104459750D01*
X143143349Y-104479962D01*
X143134170Y-104499368D01*
X143123134Y-104517781D01*
X143110346Y-104535024D01*
X143095930Y-104550930D01*
X143080024Y-104565346D01*
X143062781Y-104578134D01*
X143044368Y-104589170D01*
X143024962Y-104598349D01*
X143004750Y-104605581D01*
X142983926Y-104610797D01*
X142962691Y-104613947D01*
X142941250Y-104615000D01*
X142503750Y-104615000D01*
X142482309Y-104613947D01*
X142461074Y-104610797D01*
X142440250Y-104605581D01*
X142420038Y-104598349D01*
X142400632Y-104589170D01*
X142382219Y-104578134D01*
X142364976Y-104565346D01*
X142349070Y-104550930D01*
X142334654Y-104535024D01*
X142321866Y-104517781D01*
X142310830Y-104499368D01*
X142301651Y-104479962D01*
X142294419Y-104459750D01*
X142289203Y-104438926D01*
X142286053Y-104417691D01*
X142285000Y-104396250D01*
X142285000Y-103883750D01*
X142286053Y-103862309D01*
X142289203Y-103841074D01*
X142294419Y-103820250D01*
X142301651Y-103800038D01*
X142310830Y-103780632D01*
X142321866Y-103762219D01*
X142334654Y-103744976D01*
X142349070Y-103729070D01*
X142364976Y-103714654D01*
X142382219Y-103701866D01*
X142400632Y-103690830D01*
X142420038Y-103681651D01*
X142440250Y-103674419D01*
X142461074Y-103669203D01*
X142482309Y-103666053D01*
X142503750Y-103665000D01*
X142941250Y-103665000D01*
X142962691Y-103666053D01*
X142962691Y-103666053D01*
G37*
D11*
X142722500Y-104140000D03*
D10*
G36*
X144537691Y-103666053D02*
G01*
X144558926Y-103669203D01*
X144579750Y-103674419D01*
X144599962Y-103681651D01*
X144619368Y-103690830D01*
X144637781Y-103701866D01*
X144655024Y-103714654D01*
X144670930Y-103729070D01*
X144685346Y-103744976D01*
X144698134Y-103762219D01*
X144709170Y-103780632D01*
X144718349Y-103800038D01*
X144725581Y-103820250D01*
X144730797Y-103841074D01*
X144733947Y-103862309D01*
X144735000Y-103883750D01*
X144735000Y-104396250D01*
X144733947Y-104417691D01*
X144730797Y-104438926D01*
X144725581Y-104459750D01*
X144718349Y-104479962D01*
X144709170Y-104499368D01*
X144698134Y-104517781D01*
X144685346Y-104535024D01*
X144670930Y-104550930D01*
X144655024Y-104565346D01*
X144637781Y-104578134D01*
X144619368Y-104589170D01*
X144599962Y-104598349D01*
X144579750Y-104605581D01*
X144558926Y-104610797D01*
X144537691Y-104613947D01*
X144516250Y-104615000D01*
X144078750Y-104615000D01*
X144057309Y-104613947D01*
X144036074Y-104610797D01*
X144015250Y-104605581D01*
X143995038Y-104598349D01*
X143975632Y-104589170D01*
X143957219Y-104578134D01*
X143939976Y-104565346D01*
X143924070Y-104550930D01*
X143909654Y-104535024D01*
X143896866Y-104517781D01*
X143885830Y-104499368D01*
X143876651Y-104479962D01*
X143869419Y-104459750D01*
X143864203Y-104438926D01*
X143861053Y-104417691D01*
X143860000Y-104396250D01*
X143860000Y-103883750D01*
X143861053Y-103862309D01*
X143864203Y-103841074D01*
X143869419Y-103820250D01*
X143876651Y-103800038D01*
X143885830Y-103780632D01*
X143896866Y-103762219D01*
X143909654Y-103744976D01*
X143924070Y-103729070D01*
X143939976Y-103714654D01*
X143957219Y-103701866D01*
X143975632Y-103690830D01*
X143995038Y-103681651D01*
X144015250Y-103674419D01*
X144036074Y-103669203D01*
X144057309Y-103666053D01*
X144078750Y-103665000D01*
X144516250Y-103665000D01*
X144537691Y-103666053D01*
X144537691Y-103666053D01*
G37*
D11*
X144297500Y-104140000D03*
D10*
G36*
X131532691Y-103666053D02*
G01*
X131553926Y-103669203D01*
X131574750Y-103674419D01*
X131594962Y-103681651D01*
X131614368Y-103690830D01*
X131632781Y-103701866D01*
X131650024Y-103714654D01*
X131665930Y-103729070D01*
X131680346Y-103744976D01*
X131693134Y-103762219D01*
X131704170Y-103780632D01*
X131713349Y-103800038D01*
X131720581Y-103820250D01*
X131725797Y-103841074D01*
X131728947Y-103862309D01*
X131730000Y-103883750D01*
X131730000Y-104396250D01*
X131728947Y-104417691D01*
X131725797Y-104438926D01*
X131720581Y-104459750D01*
X131713349Y-104479962D01*
X131704170Y-104499368D01*
X131693134Y-104517781D01*
X131680346Y-104535024D01*
X131665930Y-104550930D01*
X131650024Y-104565346D01*
X131632781Y-104578134D01*
X131614368Y-104589170D01*
X131594962Y-104598349D01*
X131574750Y-104605581D01*
X131553926Y-104610797D01*
X131532691Y-104613947D01*
X131511250Y-104615000D01*
X131073750Y-104615000D01*
X131052309Y-104613947D01*
X131031074Y-104610797D01*
X131010250Y-104605581D01*
X130990038Y-104598349D01*
X130970632Y-104589170D01*
X130952219Y-104578134D01*
X130934976Y-104565346D01*
X130919070Y-104550930D01*
X130904654Y-104535024D01*
X130891866Y-104517781D01*
X130880830Y-104499368D01*
X130871651Y-104479962D01*
X130864419Y-104459750D01*
X130859203Y-104438926D01*
X130856053Y-104417691D01*
X130855000Y-104396250D01*
X130855000Y-103883750D01*
X130856053Y-103862309D01*
X130859203Y-103841074D01*
X130864419Y-103820250D01*
X130871651Y-103800038D01*
X130880830Y-103780632D01*
X130891866Y-103762219D01*
X130904654Y-103744976D01*
X130919070Y-103729070D01*
X130934976Y-103714654D01*
X130952219Y-103701866D01*
X130970632Y-103690830D01*
X130990038Y-103681651D01*
X131010250Y-103674419D01*
X131031074Y-103669203D01*
X131052309Y-103666053D01*
X131073750Y-103665000D01*
X131511250Y-103665000D01*
X131532691Y-103666053D01*
X131532691Y-103666053D01*
G37*
D11*
X131292500Y-104140000D03*
D10*
G36*
X133107691Y-103666053D02*
G01*
X133128926Y-103669203D01*
X133149750Y-103674419D01*
X133169962Y-103681651D01*
X133189368Y-103690830D01*
X133207781Y-103701866D01*
X133225024Y-103714654D01*
X133240930Y-103729070D01*
X133255346Y-103744976D01*
X133268134Y-103762219D01*
X133279170Y-103780632D01*
X133288349Y-103800038D01*
X133295581Y-103820250D01*
X133300797Y-103841074D01*
X133303947Y-103862309D01*
X133305000Y-103883750D01*
X133305000Y-104396250D01*
X133303947Y-104417691D01*
X133300797Y-104438926D01*
X133295581Y-104459750D01*
X133288349Y-104479962D01*
X133279170Y-104499368D01*
X133268134Y-104517781D01*
X133255346Y-104535024D01*
X133240930Y-104550930D01*
X133225024Y-104565346D01*
X133207781Y-104578134D01*
X133189368Y-104589170D01*
X133169962Y-104598349D01*
X133149750Y-104605581D01*
X133128926Y-104610797D01*
X133107691Y-104613947D01*
X133086250Y-104615000D01*
X132648750Y-104615000D01*
X132627309Y-104613947D01*
X132606074Y-104610797D01*
X132585250Y-104605581D01*
X132565038Y-104598349D01*
X132545632Y-104589170D01*
X132527219Y-104578134D01*
X132509976Y-104565346D01*
X132494070Y-104550930D01*
X132479654Y-104535024D01*
X132466866Y-104517781D01*
X132455830Y-104499368D01*
X132446651Y-104479962D01*
X132439419Y-104459750D01*
X132434203Y-104438926D01*
X132431053Y-104417691D01*
X132430000Y-104396250D01*
X132430000Y-103883750D01*
X132431053Y-103862309D01*
X132434203Y-103841074D01*
X132439419Y-103820250D01*
X132446651Y-103800038D01*
X132455830Y-103780632D01*
X132466866Y-103762219D01*
X132479654Y-103744976D01*
X132494070Y-103729070D01*
X132509976Y-103714654D01*
X132527219Y-103701866D01*
X132545632Y-103690830D01*
X132565038Y-103681651D01*
X132585250Y-103674419D01*
X132606074Y-103669203D01*
X132627309Y-103666053D01*
X132648750Y-103665000D01*
X133086250Y-103665000D01*
X133107691Y-103666053D01*
X133107691Y-103666053D01*
G37*
D11*
X132867500Y-104140000D03*
D10*
G36*
X127722691Y-103666053D02*
G01*
X127743926Y-103669203D01*
X127764750Y-103674419D01*
X127784962Y-103681651D01*
X127804368Y-103690830D01*
X127822781Y-103701866D01*
X127840024Y-103714654D01*
X127855930Y-103729070D01*
X127870346Y-103744976D01*
X127883134Y-103762219D01*
X127894170Y-103780632D01*
X127903349Y-103800038D01*
X127910581Y-103820250D01*
X127915797Y-103841074D01*
X127918947Y-103862309D01*
X127920000Y-103883750D01*
X127920000Y-104396250D01*
X127918947Y-104417691D01*
X127915797Y-104438926D01*
X127910581Y-104459750D01*
X127903349Y-104479962D01*
X127894170Y-104499368D01*
X127883134Y-104517781D01*
X127870346Y-104535024D01*
X127855930Y-104550930D01*
X127840024Y-104565346D01*
X127822781Y-104578134D01*
X127804368Y-104589170D01*
X127784962Y-104598349D01*
X127764750Y-104605581D01*
X127743926Y-104610797D01*
X127722691Y-104613947D01*
X127701250Y-104615000D01*
X127263750Y-104615000D01*
X127242309Y-104613947D01*
X127221074Y-104610797D01*
X127200250Y-104605581D01*
X127180038Y-104598349D01*
X127160632Y-104589170D01*
X127142219Y-104578134D01*
X127124976Y-104565346D01*
X127109070Y-104550930D01*
X127094654Y-104535024D01*
X127081866Y-104517781D01*
X127070830Y-104499368D01*
X127061651Y-104479962D01*
X127054419Y-104459750D01*
X127049203Y-104438926D01*
X127046053Y-104417691D01*
X127045000Y-104396250D01*
X127045000Y-103883750D01*
X127046053Y-103862309D01*
X127049203Y-103841074D01*
X127054419Y-103820250D01*
X127061651Y-103800038D01*
X127070830Y-103780632D01*
X127081866Y-103762219D01*
X127094654Y-103744976D01*
X127109070Y-103729070D01*
X127124976Y-103714654D01*
X127142219Y-103701866D01*
X127160632Y-103690830D01*
X127180038Y-103681651D01*
X127200250Y-103674419D01*
X127221074Y-103669203D01*
X127242309Y-103666053D01*
X127263750Y-103665000D01*
X127701250Y-103665000D01*
X127722691Y-103666053D01*
X127722691Y-103666053D01*
G37*
D11*
X127482500Y-104140000D03*
D10*
G36*
X129297691Y-103666053D02*
G01*
X129318926Y-103669203D01*
X129339750Y-103674419D01*
X129359962Y-103681651D01*
X129379368Y-103690830D01*
X129397781Y-103701866D01*
X129415024Y-103714654D01*
X129430930Y-103729070D01*
X129445346Y-103744976D01*
X129458134Y-103762219D01*
X129469170Y-103780632D01*
X129478349Y-103800038D01*
X129485581Y-103820250D01*
X129490797Y-103841074D01*
X129493947Y-103862309D01*
X129495000Y-103883750D01*
X129495000Y-104396250D01*
X129493947Y-104417691D01*
X129490797Y-104438926D01*
X129485581Y-104459750D01*
X129478349Y-104479962D01*
X129469170Y-104499368D01*
X129458134Y-104517781D01*
X129445346Y-104535024D01*
X129430930Y-104550930D01*
X129415024Y-104565346D01*
X129397781Y-104578134D01*
X129379368Y-104589170D01*
X129359962Y-104598349D01*
X129339750Y-104605581D01*
X129318926Y-104610797D01*
X129297691Y-104613947D01*
X129276250Y-104615000D01*
X128838750Y-104615000D01*
X128817309Y-104613947D01*
X128796074Y-104610797D01*
X128775250Y-104605581D01*
X128755038Y-104598349D01*
X128735632Y-104589170D01*
X128717219Y-104578134D01*
X128699976Y-104565346D01*
X128684070Y-104550930D01*
X128669654Y-104535024D01*
X128656866Y-104517781D01*
X128645830Y-104499368D01*
X128636651Y-104479962D01*
X128629419Y-104459750D01*
X128624203Y-104438926D01*
X128621053Y-104417691D01*
X128620000Y-104396250D01*
X128620000Y-103883750D01*
X128621053Y-103862309D01*
X128624203Y-103841074D01*
X128629419Y-103820250D01*
X128636651Y-103800038D01*
X128645830Y-103780632D01*
X128656866Y-103762219D01*
X128669654Y-103744976D01*
X128684070Y-103729070D01*
X128699976Y-103714654D01*
X128717219Y-103701866D01*
X128735632Y-103690830D01*
X128755038Y-103681651D01*
X128775250Y-103674419D01*
X128796074Y-103669203D01*
X128817309Y-103666053D01*
X128838750Y-103665000D01*
X129276250Y-103665000D01*
X129297691Y-103666053D01*
X129297691Y-103666053D01*
G37*
D11*
X129057500Y-104140000D03*
D10*
G36*
X150582691Y-103666053D02*
G01*
X150603926Y-103669203D01*
X150624750Y-103674419D01*
X150644962Y-103681651D01*
X150664368Y-103690830D01*
X150682781Y-103701866D01*
X150700024Y-103714654D01*
X150715930Y-103729070D01*
X150730346Y-103744976D01*
X150743134Y-103762219D01*
X150754170Y-103780632D01*
X150763349Y-103800038D01*
X150770581Y-103820250D01*
X150775797Y-103841074D01*
X150778947Y-103862309D01*
X150780000Y-103883750D01*
X150780000Y-104396250D01*
X150778947Y-104417691D01*
X150775797Y-104438926D01*
X150770581Y-104459750D01*
X150763349Y-104479962D01*
X150754170Y-104499368D01*
X150743134Y-104517781D01*
X150730346Y-104535024D01*
X150715930Y-104550930D01*
X150700024Y-104565346D01*
X150682781Y-104578134D01*
X150664368Y-104589170D01*
X150644962Y-104598349D01*
X150624750Y-104605581D01*
X150603926Y-104610797D01*
X150582691Y-104613947D01*
X150561250Y-104615000D01*
X150123750Y-104615000D01*
X150102309Y-104613947D01*
X150081074Y-104610797D01*
X150060250Y-104605581D01*
X150040038Y-104598349D01*
X150020632Y-104589170D01*
X150002219Y-104578134D01*
X149984976Y-104565346D01*
X149969070Y-104550930D01*
X149954654Y-104535024D01*
X149941866Y-104517781D01*
X149930830Y-104499368D01*
X149921651Y-104479962D01*
X149914419Y-104459750D01*
X149909203Y-104438926D01*
X149906053Y-104417691D01*
X149905000Y-104396250D01*
X149905000Y-103883750D01*
X149906053Y-103862309D01*
X149909203Y-103841074D01*
X149914419Y-103820250D01*
X149921651Y-103800038D01*
X149930830Y-103780632D01*
X149941866Y-103762219D01*
X149954654Y-103744976D01*
X149969070Y-103729070D01*
X149984976Y-103714654D01*
X150002219Y-103701866D01*
X150020632Y-103690830D01*
X150040038Y-103681651D01*
X150060250Y-103674419D01*
X150081074Y-103669203D01*
X150102309Y-103666053D01*
X150123750Y-103665000D01*
X150561250Y-103665000D01*
X150582691Y-103666053D01*
X150582691Y-103666053D01*
G37*
D11*
X150342500Y-104140000D03*
D10*
G36*
X152157691Y-103666053D02*
G01*
X152178926Y-103669203D01*
X152199750Y-103674419D01*
X152219962Y-103681651D01*
X152239368Y-103690830D01*
X152257781Y-103701866D01*
X152275024Y-103714654D01*
X152290930Y-103729070D01*
X152305346Y-103744976D01*
X152318134Y-103762219D01*
X152329170Y-103780632D01*
X152338349Y-103800038D01*
X152345581Y-103820250D01*
X152350797Y-103841074D01*
X152353947Y-103862309D01*
X152355000Y-103883750D01*
X152355000Y-104396250D01*
X152353947Y-104417691D01*
X152350797Y-104438926D01*
X152345581Y-104459750D01*
X152338349Y-104479962D01*
X152329170Y-104499368D01*
X152318134Y-104517781D01*
X152305346Y-104535024D01*
X152290930Y-104550930D01*
X152275024Y-104565346D01*
X152257781Y-104578134D01*
X152239368Y-104589170D01*
X152219962Y-104598349D01*
X152199750Y-104605581D01*
X152178926Y-104610797D01*
X152157691Y-104613947D01*
X152136250Y-104615000D01*
X151698750Y-104615000D01*
X151677309Y-104613947D01*
X151656074Y-104610797D01*
X151635250Y-104605581D01*
X151615038Y-104598349D01*
X151595632Y-104589170D01*
X151577219Y-104578134D01*
X151559976Y-104565346D01*
X151544070Y-104550930D01*
X151529654Y-104535024D01*
X151516866Y-104517781D01*
X151505830Y-104499368D01*
X151496651Y-104479962D01*
X151489419Y-104459750D01*
X151484203Y-104438926D01*
X151481053Y-104417691D01*
X151480000Y-104396250D01*
X151480000Y-103883750D01*
X151481053Y-103862309D01*
X151484203Y-103841074D01*
X151489419Y-103820250D01*
X151496651Y-103800038D01*
X151505830Y-103780632D01*
X151516866Y-103762219D01*
X151529654Y-103744976D01*
X151544070Y-103729070D01*
X151559976Y-103714654D01*
X151577219Y-103701866D01*
X151595632Y-103690830D01*
X151615038Y-103681651D01*
X151635250Y-103674419D01*
X151656074Y-103669203D01*
X151677309Y-103666053D01*
X151698750Y-103665000D01*
X152136250Y-103665000D01*
X152157691Y-103666053D01*
X152157691Y-103666053D01*
G37*
D11*
X151917500Y-104140000D03*
D10*
G36*
X139152691Y-103666053D02*
G01*
X139173926Y-103669203D01*
X139194750Y-103674419D01*
X139214962Y-103681651D01*
X139234368Y-103690830D01*
X139252781Y-103701866D01*
X139270024Y-103714654D01*
X139285930Y-103729070D01*
X139300346Y-103744976D01*
X139313134Y-103762219D01*
X139324170Y-103780632D01*
X139333349Y-103800038D01*
X139340581Y-103820250D01*
X139345797Y-103841074D01*
X139348947Y-103862309D01*
X139350000Y-103883750D01*
X139350000Y-104396250D01*
X139348947Y-104417691D01*
X139345797Y-104438926D01*
X139340581Y-104459750D01*
X139333349Y-104479962D01*
X139324170Y-104499368D01*
X139313134Y-104517781D01*
X139300346Y-104535024D01*
X139285930Y-104550930D01*
X139270024Y-104565346D01*
X139252781Y-104578134D01*
X139234368Y-104589170D01*
X139214962Y-104598349D01*
X139194750Y-104605581D01*
X139173926Y-104610797D01*
X139152691Y-104613947D01*
X139131250Y-104615000D01*
X138693750Y-104615000D01*
X138672309Y-104613947D01*
X138651074Y-104610797D01*
X138630250Y-104605581D01*
X138610038Y-104598349D01*
X138590632Y-104589170D01*
X138572219Y-104578134D01*
X138554976Y-104565346D01*
X138539070Y-104550930D01*
X138524654Y-104535024D01*
X138511866Y-104517781D01*
X138500830Y-104499368D01*
X138491651Y-104479962D01*
X138484419Y-104459750D01*
X138479203Y-104438926D01*
X138476053Y-104417691D01*
X138475000Y-104396250D01*
X138475000Y-103883750D01*
X138476053Y-103862309D01*
X138479203Y-103841074D01*
X138484419Y-103820250D01*
X138491651Y-103800038D01*
X138500830Y-103780632D01*
X138511866Y-103762219D01*
X138524654Y-103744976D01*
X138539070Y-103729070D01*
X138554976Y-103714654D01*
X138572219Y-103701866D01*
X138590632Y-103690830D01*
X138610038Y-103681651D01*
X138630250Y-103674419D01*
X138651074Y-103669203D01*
X138672309Y-103666053D01*
X138693750Y-103665000D01*
X139131250Y-103665000D01*
X139152691Y-103666053D01*
X139152691Y-103666053D01*
G37*
D11*
X138912500Y-104140000D03*
D10*
G36*
X140727691Y-103666053D02*
G01*
X140748926Y-103669203D01*
X140769750Y-103674419D01*
X140789962Y-103681651D01*
X140809368Y-103690830D01*
X140827781Y-103701866D01*
X140845024Y-103714654D01*
X140860930Y-103729070D01*
X140875346Y-103744976D01*
X140888134Y-103762219D01*
X140899170Y-103780632D01*
X140908349Y-103800038D01*
X140915581Y-103820250D01*
X140920797Y-103841074D01*
X140923947Y-103862309D01*
X140925000Y-103883750D01*
X140925000Y-104396250D01*
X140923947Y-104417691D01*
X140920797Y-104438926D01*
X140915581Y-104459750D01*
X140908349Y-104479962D01*
X140899170Y-104499368D01*
X140888134Y-104517781D01*
X140875346Y-104535024D01*
X140860930Y-104550930D01*
X140845024Y-104565346D01*
X140827781Y-104578134D01*
X140809368Y-104589170D01*
X140789962Y-104598349D01*
X140769750Y-104605581D01*
X140748926Y-104610797D01*
X140727691Y-104613947D01*
X140706250Y-104615000D01*
X140268750Y-104615000D01*
X140247309Y-104613947D01*
X140226074Y-104610797D01*
X140205250Y-104605581D01*
X140185038Y-104598349D01*
X140165632Y-104589170D01*
X140147219Y-104578134D01*
X140129976Y-104565346D01*
X140114070Y-104550930D01*
X140099654Y-104535024D01*
X140086866Y-104517781D01*
X140075830Y-104499368D01*
X140066651Y-104479962D01*
X140059419Y-104459750D01*
X140054203Y-104438926D01*
X140051053Y-104417691D01*
X140050000Y-104396250D01*
X140050000Y-103883750D01*
X140051053Y-103862309D01*
X140054203Y-103841074D01*
X140059419Y-103820250D01*
X140066651Y-103800038D01*
X140075830Y-103780632D01*
X140086866Y-103762219D01*
X140099654Y-103744976D01*
X140114070Y-103729070D01*
X140129976Y-103714654D01*
X140147219Y-103701866D01*
X140165632Y-103690830D01*
X140185038Y-103681651D01*
X140205250Y-103674419D01*
X140226074Y-103669203D01*
X140247309Y-103666053D01*
X140268750Y-103665000D01*
X140706250Y-103665000D01*
X140727691Y-103666053D01*
X140727691Y-103666053D01*
G37*
D11*
X140487500Y-104140000D03*
D10*
G36*
X135342691Y-103666053D02*
G01*
X135363926Y-103669203D01*
X135384750Y-103674419D01*
X135404962Y-103681651D01*
X135424368Y-103690830D01*
X135442781Y-103701866D01*
X135460024Y-103714654D01*
X135475930Y-103729070D01*
X135490346Y-103744976D01*
X135503134Y-103762219D01*
X135514170Y-103780632D01*
X135523349Y-103800038D01*
X135530581Y-103820250D01*
X135535797Y-103841074D01*
X135538947Y-103862309D01*
X135540000Y-103883750D01*
X135540000Y-104396250D01*
X135538947Y-104417691D01*
X135535797Y-104438926D01*
X135530581Y-104459750D01*
X135523349Y-104479962D01*
X135514170Y-104499368D01*
X135503134Y-104517781D01*
X135490346Y-104535024D01*
X135475930Y-104550930D01*
X135460024Y-104565346D01*
X135442781Y-104578134D01*
X135424368Y-104589170D01*
X135404962Y-104598349D01*
X135384750Y-104605581D01*
X135363926Y-104610797D01*
X135342691Y-104613947D01*
X135321250Y-104615000D01*
X134883750Y-104615000D01*
X134862309Y-104613947D01*
X134841074Y-104610797D01*
X134820250Y-104605581D01*
X134800038Y-104598349D01*
X134780632Y-104589170D01*
X134762219Y-104578134D01*
X134744976Y-104565346D01*
X134729070Y-104550930D01*
X134714654Y-104535024D01*
X134701866Y-104517781D01*
X134690830Y-104499368D01*
X134681651Y-104479962D01*
X134674419Y-104459750D01*
X134669203Y-104438926D01*
X134666053Y-104417691D01*
X134665000Y-104396250D01*
X134665000Y-103883750D01*
X134666053Y-103862309D01*
X134669203Y-103841074D01*
X134674419Y-103820250D01*
X134681651Y-103800038D01*
X134690830Y-103780632D01*
X134701866Y-103762219D01*
X134714654Y-103744976D01*
X134729070Y-103729070D01*
X134744976Y-103714654D01*
X134762219Y-103701866D01*
X134780632Y-103690830D01*
X134800038Y-103681651D01*
X134820250Y-103674419D01*
X134841074Y-103669203D01*
X134862309Y-103666053D01*
X134883750Y-103665000D01*
X135321250Y-103665000D01*
X135342691Y-103666053D01*
X135342691Y-103666053D01*
G37*
D11*
X135102500Y-104140000D03*
D10*
G36*
X136917691Y-103666053D02*
G01*
X136938926Y-103669203D01*
X136959750Y-103674419D01*
X136979962Y-103681651D01*
X136999368Y-103690830D01*
X137017781Y-103701866D01*
X137035024Y-103714654D01*
X137050930Y-103729070D01*
X137065346Y-103744976D01*
X137078134Y-103762219D01*
X137089170Y-103780632D01*
X137098349Y-103800038D01*
X137105581Y-103820250D01*
X137110797Y-103841074D01*
X137113947Y-103862309D01*
X137115000Y-103883750D01*
X137115000Y-104396250D01*
X137113947Y-104417691D01*
X137110797Y-104438926D01*
X137105581Y-104459750D01*
X137098349Y-104479962D01*
X137089170Y-104499368D01*
X137078134Y-104517781D01*
X137065346Y-104535024D01*
X137050930Y-104550930D01*
X137035024Y-104565346D01*
X137017781Y-104578134D01*
X136999368Y-104589170D01*
X136979962Y-104598349D01*
X136959750Y-104605581D01*
X136938926Y-104610797D01*
X136917691Y-104613947D01*
X136896250Y-104615000D01*
X136458750Y-104615000D01*
X136437309Y-104613947D01*
X136416074Y-104610797D01*
X136395250Y-104605581D01*
X136375038Y-104598349D01*
X136355632Y-104589170D01*
X136337219Y-104578134D01*
X136319976Y-104565346D01*
X136304070Y-104550930D01*
X136289654Y-104535024D01*
X136276866Y-104517781D01*
X136265830Y-104499368D01*
X136256651Y-104479962D01*
X136249419Y-104459750D01*
X136244203Y-104438926D01*
X136241053Y-104417691D01*
X136240000Y-104396250D01*
X136240000Y-103883750D01*
X136241053Y-103862309D01*
X136244203Y-103841074D01*
X136249419Y-103820250D01*
X136256651Y-103800038D01*
X136265830Y-103780632D01*
X136276866Y-103762219D01*
X136289654Y-103744976D01*
X136304070Y-103729070D01*
X136319976Y-103714654D01*
X136337219Y-103701866D01*
X136355632Y-103690830D01*
X136375038Y-103681651D01*
X136395250Y-103674419D01*
X136416074Y-103669203D01*
X136437309Y-103666053D01*
X136458750Y-103665000D01*
X136896250Y-103665000D01*
X136917691Y-103666053D01*
X136917691Y-103666053D01*
G37*
D11*
X136677500Y-104140000D03*
D10*
G36*
X123912691Y-103666053D02*
G01*
X123933926Y-103669203D01*
X123954750Y-103674419D01*
X123974962Y-103681651D01*
X123994368Y-103690830D01*
X124012781Y-103701866D01*
X124030024Y-103714654D01*
X124045930Y-103729070D01*
X124060346Y-103744976D01*
X124073134Y-103762219D01*
X124084170Y-103780632D01*
X124093349Y-103800038D01*
X124100581Y-103820250D01*
X124105797Y-103841074D01*
X124108947Y-103862309D01*
X124110000Y-103883750D01*
X124110000Y-104396250D01*
X124108947Y-104417691D01*
X124105797Y-104438926D01*
X124100581Y-104459750D01*
X124093349Y-104479962D01*
X124084170Y-104499368D01*
X124073134Y-104517781D01*
X124060346Y-104535024D01*
X124045930Y-104550930D01*
X124030024Y-104565346D01*
X124012781Y-104578134D01*
X123994368Y-104589170D01*
X123974962Y-104598349D01*
X123954750Y-104605581D01*
X123933926Y-104610797D01*
X123912691Y-104613947D01*
X123891250Y-104615000D01*
X123453750Y-104615000D01*
X123432309Y-104613947D01*
X123411074Y-104610797D01*
X123390250Y-104605581D01*
X123370038Y-104598349D01*
X123350632Y-104589170D01*
X123332219Y-104578134D01*
X123314976Y-104565346D01*
X123299070Y-104550930D01*
X123284654Y-104535024D01*
X123271866Y-104517781D01*
X123260830Y-104499368D01*
X123251651Y-104479962D01*
X123244419Y-104459750D01*
X123239203Y-104438926D01*
X123236053Y-104417691D01*
X123235000Y-104396250D01*
X123235000Y-103883750D01*
X123236053Y-103862309D01*
X123239203Y-103841074D01*
X123244419Y-103820250D01*
X123251651Y-103800038D01*
X123260830Y-103780632D01*
X123271866Y-103762219D01*
X123284654Y-103744976D01*
X123299070Y-103729070D01*
X123314976Y-103714654D01*
X123332219Y-103701866D01*
X123350632Y-103690830D01*
X123370038Y-103681651D01*
X123390250Y-103674419D01*
X123411074Y-103669203D01*
X123432309Y-103666053D01*
X123453750Y-103665000D01*
X123891250Y-103665000D01*
X123912691Y-103666053D01*
X123912691Y-103666053D01*
G37*
D11*
X123672500Y-104140000D03*
D10*
G36*
X125487691Y-103666053D02*
G01*
X125508926Y-103669203D01*
X125529750Y-103674419D01*
X125549962Y-103681651D01*
X125569368Y-103690830D01*
X125587781Y-103701866D01*
X125605024Y-103714654D01*
X125620930Y-103729070D01*
X125635346Y-103744976D01*
X125648134Y-103762219D01*
X125659170Y-103780632D01*
X125668349Y-103800038D01*
X125675581Y-103820250D01*
X125680797Y-103841074D01*
X125683947Y-103862309D01*
X125685000Y-103883750D01*
X125685000Y-104396250D01*
X125683947Y-104417691D01*
X125680797Y-104438926D01*
X125675581Y-104459750D01*
X125668349Y-104479962D01*
X125659170Y-104499368D01*
X125648134Y-104517781D01*
X125635346Y-104535024D01*
X125620930Y-104550930D01*
X125605024Y-104565346D01*
X125587781Y-104578134D01*
X125569368Y-104589170D01*
X125549962Y-104598349D01*
X125529750Y-104605581D01*
X125508926Y-104610797D01*
X125487691Y-104613947D01*
X125466250Y-104615000D01*
X125028750Y-104615000D01*
X125007309Y-104613947D01*
X124986074Y-104610797D01*
X124965250Y-104605581D01*
X124945038Y-104598349D01*
X124925632Y-104589170D01*
X124907219Y-104578134D01*
X124889976Y-104565346D01*
X124874070Y-104550930D01*
X124859654Y-104535024D01*
X124846866Y-104517781D01*
X124835830Y-104499368D01*
X124826651Y-104479962D01*
X124819419Y-104459750D01*
X124814203Y-104438926D01*
X124811053Y-104417691D01*
X124810000Y-104396250D01*
X124810000Y-103883750D01*
X124811053Y-103862309D01*
X124814203Y-103841074D01*
X124819419Y-103820250D01*
X124826651Y-103800038D01*
X124835830Y-103780632D01*
X124846866Y-103762219D01*
X124859654Y-103744976D01*
X124874070Y-103729070D01*
X124889976Y-103714654D01*
X124907219Y-103701866D01*
X124925632Y-103690830D01*
X124945038Y-103681651D01*
X124965250Y-103674419D01*
X124986074Y-103669203D01*
X125007309Y-103666053D01*
X125028750Y-103665000D01*
X125466250Y-103665000D01*
X125487691Y-103666053D01*
X125487691Y-103666053D01*
G37*
D11*
X125247500Y-104140000D03*
D12*
X148157500Y-99526000D03*
X146482500Y-99526000D03*
X146482500Y-100348000D03*
X148157500Y-100348000D03*
D13*
X147320000Y-102262500D03*
D10*
G36*
X147439219Y-100796294D02*
G01*
X147517421Y-100811850D01*
X147593723Y-100834995D01*
X147667389Y-100865509D01*
X147737708Y-100903096D01*
X147804006Y-100947394D01*
X147865642Y-100997977D01*
X147922023Y-101054358D01*
X147972606Y-101115994D01*
X148016904Y-101182292D01*
X148054491Y-101252611D01*
X148085005Y-101326277D01*
X148108150Y-101402579D01*
X148123706Y-101480781D01*
X148131521Y-101560133D01*
X148131521Y-101639867D01*
X148123706Y-101719219D01*
X148108150Y-101797421D01*
X148085005Y-101873723D01*
X148054491Y-101947389D01*
X148016904Y-102017708D01*
X147972606Y-102084006D01*
X147922023Y-102145642D01*
X147865642Y-102202023D01*
X147804006Y-102252606D01*
X147737708Y-102296904D01*
X147667389Y-102334491D01*
X147593723Y-102365005D01*
X147517421Y-102388150D01*
X147439219Y-102403706D01*
X147359867Y-102411521D01*
X147335462Y-102411521D01*
X147327360Y-102412319D01*
X147312640Y-102412319D01*
X147304538Y-102411521D01*
X147280133Y-102411521D01*
X147200781Y-102403706D01*
X147122579Y-102388150D01*
X147046277Y-102365005D01*
X146972611Y-102334491D01*
X146902292Y-102296904D01*
X146835994Y-102252606D01*
X146774358Y-102202023D01*
X146717977Y-102145642D01*
X146667394Y-102084006D01*
X146623096Y-102017708D01*
X146585509Y-101947389D01*
X146554995Y-101873723D01*
X146531850Y-101797421D01*
X146516294Y-101719219D01*
X146508479Y-101639867D01*
X146508479Y-101574853D01*
X146808117Y-101574853D01*
X146808117Y-101625147D01*
X146813047Y-101675199D01*
X146822859Y-101724527D01*
X146837459Y-101772656D01*
X146856705Y-101819122D01*
X146880414Y-101863478D01*
X146908356Y-101905296D01*
X146940263Y-101944174D01*
X146975826Y-101979737D01*
X147014704Y-102011644D01*
X147056522Y-102039586D01*
X147100878Y-102063295D01*
X147147344Y-102082541D01*
X147195473Y-102097141D01*
X147244801Y-102106953D01*
X147294853Y-102111883D01*
X147345147Y-102111883D01*
X147395199Y-102106953D01*
X147444527Y-102097141D01*
X147492656Y-102082541D01*
X147539122Y-102063295D01*
X147583478Y-102039586D01*
X147625296Y-102011644D01*
X147664174Y-101979737D01*
X147699737Y-101944174D01*
X147731644Y-101905296D01*
X147759586Y-101863478D01*
X147783295Y-101819122D01*
X147802541Y-101772656D01*
X147817141Y-101724527D01*
X147826953Y-101675199D01*
X147831883Y-101625147D01*
X147831883Y-101574853D01*
X147826953Y-101524801D01*
X147817141Y-101475473D01*
X147802541Y-101427344D01*
X147783295Y-101380878D01*
X147759586Y-101336522D01*
X147731644Y-101294704D01*
X147699737Y-101255826D01*
X147664174Y-101220263D01*
X147625296Y-101188356D01*
X147583478Y-101160414D01*
X147539122Y-101136705D01*
X147492656Y-101117459D01*
X147444527Y-101102859D01*
X147395199Y-101093047D01*
X147345147Y-101088117D01*
X147294853Y-101088117D01*
X147244801Y-101093047D01*
X147195473Y-101102859D01*
X147147344Y-101117459D01*
X147100878Y-101136705D01*
X147056522Y-101160414D01*
X147014704Y-101188356D01*
X146975826Y-101220263D01*
X146940263Y-101255826D01*
X146908356Y-101294704D01*
X146880414Y-101336522D01*
X146856705Y-101380878D01*
X146837459Y-101427344D01*
X146822859Y-101475473D01*
X146813047Y-101524801D01*
X146808117Y-101574853D01*
X146508479Y-101574853D01*
X146508479Y-101560133D01*
X146516294Y-101480781D01*
X146531850Y-101402579D01*
X146554995Y-101326277D01*
X146585509Y-101252611D01*
X146623096Y-101182292D01*
X146667394Y-101115994D01*
X146717977Y-101054358D01*
X146774358Y-100997977D01*
X146835994Y-100947394D01*
X146902292Y-100903096D01*
X146972611Y-100865509D01*
X147046277Y-100834995D01*
X147122579Y-100811850D01*
X147200781Y-100796294D01*
X147280133Y-100788479D01*
X147359867Y-100788479D01*
X147439219Y-100796294D01*
X147439219Y-100796294D01*
G37*
D12*
X144347500Y-99526000D03*
X142672500Y-99526000D03*
X142672500Y-100348000D03*
X144347500Y-100348000D03*
D13*
X143510000Y-102262500D03*
D10*
G36*
X143629219Y-100796294D02*
G01*
X143707421Y-100811850D01*
X143783723Y-100834995D01*
X143857389Y-100865509D01*
X143927708Y-100903096D01*
X143994006Y-100947394D01*
X144055642Y-100997977D01*
X144112023Y-101054358D01*
X144162606Y-101115994D01*
X144206904Y-101182292D01*
X144244491Y-101252611D01*
X144275005Y-101326277D01*
X144298150Y-101402579D01*
X144313706Y-101480781D01*
X144321521Y-101560133D01*
X144321521Y-101639867D01*
X144313706Y-101719219D01*
X144298150Y-101797421D01*
X144275005Y-101873723D01*
X144244491Y-101947389D01*
X144206904Y-102017708D01*
X144162606Y-102084006D01*
X144112023Y-102145642D01*
X144055642Y-102202023D01*
X143994006Y-102252606D01*
X143927708Y-102296904D01*
X143857389Y-102334491D01*
X143783723Y-102365005D01*
X143707421Y-102388150D01*
X143629219Y-102403706D01*
X143549867Y-102411521D01*
X143525462Y-102411521D01*
X143517360Y-102412319D01*
X143502640Y-102412319D01*
X143494538Y-102411521D01*
X143470133Y-102411521D01*
X143390781Y-102403706D01*
X143312579Y-102388150D01*
X143236277Y-102365005D01*
X143162611Y-102334491D01*
X143092292Y-102296904D01*
X143025994Y-102252606D01*
X142964358Y-102202023D01*
X142907977Y-102145642D01*
X142857394Y-102084006D01*
X142813096Y-102017708D01*
X142775509Y-101947389D01*
X142744995Y-101873723D01*
X142721850Y-101797421D01*
X142706294Y-101719219D01*
X142698479Y-101639867D01*
X142698479Y-101574853D01*
X142998117Y-101574853D01*
X142998117Y-101625147D01*
X143003047Y-101675199D01*
X143012859Y-101724527D01*
X143027459Y-101772656D01*
X143046705Y-101819122D01*
X143070414Y-101863478D01*
X143098356Y-101905296D01*
X143130263Y-101944174D01*
X143165826Y-101979737D01*
X143204704Y-102011644D01*
X143246522Y-102039586D01*
X143290878Y-102063295D01*
X143337344Y-102082541D01*
X143385473Y-102097141D01*
X143434801Y-102106953D01*
X143484853Y-102111883D01*
X143535147Y-102111883D01*
X143585199Y-102106953D01*
X143634527Y-102097141D01*
X143682656Y-102082541D01*
X143729122Y-102063295D01*
X143773478Y-102039586D01*
X143815296Y-102011644D01*
X143854174Y-101979737D01*
X143889737Y-101944174D01*
X143921644Y-101905296D01*
X143949586Y-101863478D01*
X143973295Y-101819122D01*
X143992541Y-101772656D01*
X144007141Y-101724527D01*
X144016953Y-101675199D01*
X144021883Y-101625147D01*
X144021883Y-101574853D01*
X144016953Y-101524801D01*
X144007141Y-101475473D01*
X143992541Y-101427344D01*
X143973295Y-101380878D01*
X143949586Y-101336522D01*
X143921644Y-101294704D01*
X143889737Y-101255826D01*
X143854174Y-101220263D01*
X143815296Y-101188356D01*
X143773478Y-101160414D01*
X143729122Y-101136705D01*
X143682656Y-101117459D01*
X143634527Y-101102859D01*
X143585199Y-101093047D01*
X143535147Y-101088117D01*
X143484853Y-101088117D01*
X143434801Y-101093047D01*
X143385473Y-101102859D01*
X143337344Y-101117459D01*
X143290878Y-101136705D01*
X143246522Y-101160414D01*
X143204704Y-101188356D01*
X143165826Y-101220263D01*
X143130263Y-101255826D01*
X143098356Y-101294704D01*
X143070414Y-101336522D01*
X143046705Y-101380878D01*
X143027459Y-101427344D01*
X143012859Y-101475473D01*
X143003047Y-101524801D01*
X142998117Y-101574853D01*
X142698479Y-101574853D01*
X142698479Y-101560133D01*
X142706294Y-101480781D01*
X142721850Y-101402579D01*
X142744995Y-101326277D01*
X142775509Y-101252611D01*
X142813096Y-101182292D01*
X142857394Y-101115994D01*
X142907977Y-101054358D01*
X142964358Y-100997977D01*
X143025994Y-100947394D01*
X143092292Y-100903096D01*
X143162611Y-100865509D01*
X143236277Y-100834995D01*
X143312579Y-100811850D01*
X143390781Y-100796294D01*
X143470133Y-100788479D01*
X143549867Y-100788479D01*
X143629219Y-100796294D01*
X143629219Y-100796294D01*
G37*
D12*
X132917500Y-99526000D03*
X131242500Y-99526000D03*
X131242500Y-100348000D03*
X132917500Y-100348000D03*
D13*
X132080000Y-102262500D03*
D10*
G36*
X132199219Y-100796294D02*
G01*
X132277421Y-100811850D01*
X132353723Y-100834995D01*
X132427389Y-100865509D01*
X132497708Y-100903096D01*
X132564006Y-100947394D01*
X132625642Y-100997977D01*
X132682023Y-101054358D01*
X132732606Y-101115994D01*
X132776904Y-101182292D01*
X132814491Y-101252611D01*
X132845005Y-101326277D01*
X132868150Y-101402579D01*
X132883706Y-101480781D01*
X132891521Y-101560133D01*
X132891521Y-101639867D01*
X132883706Y-101719219D01*
X132868150Y-101797421D01*
X132845005Y-101873723D01*
X132814491Y-101947389D01*
X132776904Y-102017708D01*
X132732606Y-102084006D01*
X132682023Y-102145642D01*
X132625642Y-102202023D01*
X132564006Y-102252606D01*
X132497708Y-102296904D01*
X132427389Y-102334491D01*
X132353723Y-102365005D01*
X132277421Y-102388150D01*
X132199219Y-102403706D01*
X132119867Y-102411521D01*
X132095462Y-102411521D01*
X132087360Y-102412319D01*
X132072640Y-102412319D01*
X132064538Y-102411521D01*
X132040133Y-102411521D01*
X131960781Y-102403706D01*
X131882579Y-102388150D01*
X131806277Y-102365005D01*
X131732611Y-102334491D01*
X131662292Y-102296904D01*
X131595994Y-102252606D01*
X131534358Y-102202023D01*
X131477977Y-102145642D01*
X131427394Y-102084006D01*
X131383096Y-102017708D01*
X131345509Y-101947389D01*
X131314995Y-101873723D01*
X131291850Y-101797421D01*
X131276294Y-101719219D01*
X131268479Y-101639867D01*
X131268479Y-101574853D01*
X131568117Y-101574853D01*
X131568117Y-101625147D01*
X131573047Y-101675199D01*
X131582859Y-101724527D01*
X131597459Y-101772656D01*
X131616705Y-101819122D01*
X131640414Y-101863478D01*
X131668356Y-101905296D01*
X131700263Y-101944174D01*
X131735826Y-101979737D01*
X131774704Y-102011644D01*
X131816522Y-102039586D01*
X131860878Y-102063295D01*
X131907344Y-102082541D01*
X131955473Y-102097141D01*
X132004801Y-102106953D01*
X132054853Y-102111883D01*
X132105147Y-102111883D01*
X132155199Y-102106953D01*
X132204527Y-102097141D01*
X132252656Y-102082541D01*
X132299122Y-102063295D01*
X132343478Y-102039586D01*
X132385296Y-102011644D01*
X132424174Y-101979737D01*
X132459737Y-101944174D01*
X132491644Y-101905296D01*
X132519586Y-101863478D01*
X132543295Y-101819122D01*
X132562541Y-101772656D01*
X132577141Y-101724527D01*
X132586953Y-101675199D01*
X132591883Y-101625147D01*
X132591883Y-101574853D01*
X132586953Y-101524801D01*
X132577141Y-101475473D01*
X132562541Y-101427344D01*
X132543295Y-101380878D01*
X132519586Y-101336522D01*
X132491644Y-101294704D01*
X132459737Y-101255826D01*
X132424174Y-101220263D01*
X132385296Y-101188356D01*
X132343478Y-101160414D01*
X132299122Y-101136705D01*
X132252656Y-101117459D01*
X132204527Y-101102859D01*
X132155199Y-101093047D01*
X132105147Y-101088117D01*
X132054853Y-101088117D01*
X132004801Y-101093047D01*
X131955473Y-101102859D01*
X131907344Y-101117459D01*
X131860878Y-101136705D01*
X131816522Y-101160414D01*
X131774704Y-101188356D01*
X131735826Y-101220263D01*
X131700263Y-101255826D01*
X131668356Y-101294704D01*
X131640414Y-101336522D01*
X131616705Y-101380878D01*
X131597459Y-101427344D01*
X131582859Y-101475473D01*
X131573047Y-101524801D01*
X131568117Y-101574853D01*
X131268479Y-101574853D01*
X131268479Y-101560133D01*
X131276294Y-101480781D01*
X131291850Y-101402579D01*
X131314995Y-101326277D01*
X131345509Y-101252611D01*
X131383096Y-101182292D01*
X131427394Y-101115994D01*
X131477977Y-101054358D01*
X131534358Y-100997977D01*
X131595994Y-100947394D01*
X131662292Y-100903096D01*
X131732611Y-100865509D01*
X131806277Y-100834995D01*
X131882579Y-100811850D01*
X131960781Y-100796294D01*
X132040133Y-100788479D01*
X132119867Y-100788479D01*
X132199219Y-100796294D01*
X132199219Y-100796294D01*
G37*
D12*
X129107500Y-99526000D03*
X127432500Y-99526000D03*
X127432500Y-100348000D03*
X129107500Y-100348000D03*
D13*
X128270000Y-102262500D03*
D10*
G36*
X128389219Y-100796294D02*
G01*
X128467421Y-100811850D01*
X128543723Y-100834995D01*
X128617389Y-100865509D01*
X128687708Y-100903096D01*
X128754006Y-100947394D01*
X128815642Y-100997977D01*
X128872023Y-101054358D01*
X128922606Y-101115994D01*
X128966904Y-101182292D01*
X129004491Y-101252611D01*
X129035005Y-101326277D01*
X129058150Y-101402579D01*
X129073706Y-101480781D01*
X129081521Y-101560133D01*
X129081521Y-101639867D01*
X129073706Y-101719219D01*
X129058150Y-101797421D01*
X129035005Y-101873723D01*
X129004491Y-101947389D01*
X128966904Y-102017708D01*
X128922606Y-102084006D01*
X128872023Y-102145642D01*
X128815642Y-102202023D01*
X128754006Y-102252606D01*
X128687708Y-102296904D01*
X128617389Y-102334491D01*
X128543723Y-102365005D01*
X128467421Y-102388150D01*
X128389219Y-102403706D01*
X128309867Y-102411521D01*
X128285462Y-102411521D01*
X128277360Y-102412319D01*
X128262640Y-102412319D01*
X128254538Y-102411521D01*
X128230133Y-102411521D01*
X128150781Y-102403706D01*
X128072579Y-102388150D01*
X127996277Y-102365005D01*
X127922611Y-102334491D01*
X127852292Y-102296904D01*
X127785994Y-102252606D01*
X127724358Y-102202023D01*
X127667977Y-102145642D01*
X127617394Y-102084006D01*
X127573096Y-102017708D01*
X127535509Y-101947389D01*
X127504995Y-101873723D01*
X127481850Y-101797421D01*
X127466294Y-101719219D01*
X127458479Y-101639867D01*
X127458479Y-101574853D01*
X127758117Y-101574853D01*
X127758117Y-101625147D01*
X127763047Y-101675199D01*
X127772859Y-101724527D01*
X127787459Y-101772656D01*
X127806705Y-101819122D01*
X127830414Y-101863478D01*
X127858356Y-101905296D01*
X127890263Y-101944174D01*
X127925826Y-101979737D01*
X127964704Y-102011644D01*
X128006522Y-102039586D01*
X128050878Y-102063295D01*
X128097344Y-102082541D01*
X128145473Y-102097141D01*
X128194801Y-102106953D01*
X128244853Y-102111883D01*
X128295147Y-102111883D01*
X128345199Y-102106953D01*
X128394527Y-102097141D01*
X128442656Y-102082541D01*
X128489122Y-102063295D01*
X128533478Y-102039586D01*
X128575296Y-102011644D01*
X128614174Y-101979737D01*
X128649737Y-101944174D01*
X128681644Y-101905296D01*
X128709586Y-101863478D01*
X128733295Y-101819122D01*
X128752541Y-101772656D01*
X128767141Y-101724527D01*
X128776953Y-101675199D01*
X128781883Y-101625147D01*
X128781883Y-101574853D01*
X128776953Y-101524801D01*
X128767141Y-101475473D01*
X128752541Y-101427344D01*
X128733295Y-101380878D01*
X128709586Y-101336522D01*
X128681644Y-101294704D01*
X128649737Y-101255826D01*
X128614174Y-101220263D01*
X128575296Y-101188356D01*
X128533478Y-101160414D01*
X128489122Y-101136705D01*
X128442656Y-101117459D01*
X128394527Y-101102859D01*
X128345199Y-101093047D01*
X128295147Y-101088117D01*
X128244853Y-101088117D01*
X128194801Y-101093047D01*
X128145473Y-101102859D01*
X128097344Y-101117459D01*
X128050878Y-101136705D01*
X128006522Y-101160414D01*
X127964704Y-101188356D01*
X127925826Y-101220263D01*
X127890263Y-101255826D01*
X127858356Y-101294704D01*
X127830414Y-101336522D01*
X127806705Y-101380878D01*
X127787459Y-101427344D01*
X127772859Y-101475473D01*
X127763047Y-101524801D01*
X127758117Y-101574853D01*
X127458479Y-101574853D01*
X127458479Y-101560133D01*
X127466294Y-101480781D01*
X127481850Y-101402579D01*
X127504995Y-101326277D01*
X127535509Y-101252611D01*
X127573096Y-101182292D01*
X127617394Y-101115994D01*
X127667977Y-101054358D01*
X127724358Y-100997977D01*
X127785994Y-100947394D01*
X127852292Y-100903096D01*
X127922611Y-100865509D01*
X127996277Y-100834995D01*
X128072579Y-100811850D01*
X128150781Y-100796294D01*
X128230133Y-100788479D01*
X128309867Y-100788479D01*
X128389219Y-100796294D01*
X128389219Y-100796294D01*
G37*
D12*
X151967500Y-99526000D03*
X150292500Y-99526000D03*
X150292500Y-100348000D03*
X151967500Y-100348000D03*
D13*
X151130000Y-102262500D03*
D10*
G36*
X151249219Y-100796294D02*
G01*
X151327421Y-100811850D01*
X151403723Y-100834995D01*
X151477389Y-100865509D01*
X151547708Y-100903096D01*
X151614006Y-100947394D01*
X151675642Y-100997977D01*
X151732023Y-101054358D01*
X151782606Y-101115994D01*
X151826904Y-101182292D01*
X151864491Y-101252611D01*
X151895005Y-101326277D01*
X151918150Y-101402579D01*
X151933706Y-101480781D01*
X151941521Y-101560133D01*
X151941521Y-101639867D01*
X151933706Y-101719219D01*
X151918150Y-101797421D01*
X151895005Y-101873723D01*
X151864491Y-101947389D01*
X151826904Y-102017708D01*
X151782606Y-102084006D01*
X151732023Y-102145642D01*
X151675642Y-102202023D01*
X151614006Y-102252606D01*
X151547708Y-102296904D01*
X151477389Y-102334491D01*
X151403723Y-102365005D01*
X151327421Y-102388150D01*
X151249219Y-102403706D01*
X151169867Y-102411521D01*
X151145462Y-102411521D01*
X151137360Y-102412319D01*
X151122640Y-102412319D01*
X151114538Y-102411521D01*
X151090133Y-102411521D01*
X151010781Y-102403706D01*
X150932579Y-102388150D01*
X150856277Y-102365005D01*
X150782611Y-102334491D01*
X150712292Y-102296904D01*
X150645994Y-102252606D01*
X150584358Y-102202023D01*
X150527977Y-102145642D01*
X150477394Y-102084006D01*
X150433096Y-102017708D01*
X150395509Y-101947389D01*
X150364995Y-101873723D01*
X150341850Y-101797421D01*
X150326294Y-101719219D01*
X150318479Y-101639867D01*
X150318479Y-101574853D01*
X150618117Y-101574853D01*
X150618117Y-101625147D01*
X150623047Y-101675199D01*
X150632859Y-101724527D01*
X150647459Y-101772656D01*
X150666705Y-101819122D01*
X150690414Y-101863478D01*
X150718356Y-101905296D01*
X150750263Y-101944174D01*
X150785826Y-101979737D01*
X150824704Y-102011644D01*
X150866522Y-102039586D01*
X150910878Y-102063295D01*
X150957344Y-102082541D01*
X151005473Y-102097141D01*
X151054801Y-102106953D01*
X151104853Y-102111883D01*
X151155147Y-102111883D01*
X151205199Y-102106953D01*
X151254527Y-102097141D01*
X151302656Y-102082541D01*
X151349122Y-102063295D01*
X151393478Y-102039586D01*
X151435296Y-102011644D01*
X151474174Y-101979737D01*
X151509737Y-101944174D01*
X151541644Y-101905296D01*
X151569586Y-101863478D01*
X151593295Y-101819122D01*
X151612541Y-101772656D01*
X151627141Y-101724527D01*
X151636953Y-101675199D01*
X151641883Y-101625147D01*
X151641883Y-101574853D01*
X151636953Y-101524801D01*
X151627141Y-101475473D01*
X151612541Y-101427344D01*
X151593295Y-101380878D01*
X151569586Y-101336522D01*
X151541644Y-101294704D01*
X151509737Y-101255826D01*
X151474174Y-101220263D01*
X151435296Y-101188356D01*
X151393478Y-101160414D01*
X151349122Y-101136705D01*
X151302656Y-101117459D01*
X151254527Y-101102859D01*
X151205199Y-101093047D01*
X151155147Y-101088117D01*
X151104853Y-101088117D01*
X151054801Y-101093047D01*
X151005473Y-101102859D01*
X150957344Y-101117459D01*
X150910878Y-101136705D01*
X150866522Y-101160414D01*
X150824704Y-101188356D01*
X150785826Y-101220263D01*
X150750263Y-101255826D01*
X150718356Y-101294704D01*
X150690414Y-101336522D01*
X150666705Y-101380878D01*
X150647459Y-101427344D01*
X150632859Y-101475473D01*
X150623047Y-101524801D01*
X150618117Y-101574853D01*
X150318479Y-101574853D01*
X150318479Y-101560133D01*
X150326294Y-101480781D01*
X150341850Y-101402579D01*
X150364995Y-101326277D01*
X150395509Y-101252611D01*
X150433096Y-101182292D01*
X150477394Y-101115994D01*
X150527977Y-101054358D01*
X150584358Y-100997977D01*
X150645994Y-100947394D01*
X150712292Y-100903096D01*
X150782611Y-100865509D01*
X150856277Y-100834995D01*
X150932579Y-100811850D01*
X151010781Y-100796294D01*
X151090133Y-100788479D01*
X151169867Y-100788479D01*
X151249219Y-100796294D01*
X151249219Y-100796294D01*
G37*
D12*
X140537500Y-99526000D03*
X138862500Y-99526000D03*
X138862500Y-100348000D03*
X140537500Y-100348000D03*
D13*
X139700000Y-102262500D03*
D10*
G36*
X139819219Y-100796294D02*
G01*
X139897421Y-100811850D01*
X139973723Y-100834995D01*
X140047389Y-100865509D01*
X140117708Y-100903096D01*
X140184006Y-100947394D01*
X140245642Y-100997977D01*
X140302023Y-101054358D01*
X140352606Y-101115994D01*
X140396904Y-101182292D01*
X140434491Y-101252611D01*
X140465005Y-101326277D01*
X140488150Y-101402579D01*
X140503706Y-101480781D01*
X140511521Y-101560133D01*
X140511521Y-101639867D01*
X140503706Y-101719219D01*
X140488150Y-101797421D01*
X140465005Y-101873723D01*
X140434491Y-101947389D01*
X140396904Y-102017708D01*
X140352606Y-102084006D01*
X140302023Y-102145642D01*
X140245642Y-102202023D01*
X140184006Y-102252606D01*
X140117708Y-102296904D01*
X140047389Y-102334491D01*
X139973723Y-102365005D01*
X139897421Y-102388150D01*
X139819219Y-102403706D01*
X139739867Y-102411521D01*
X139715462Y-102411521D01*
X139707360Y-102412319D01*
X139692640Y-102412319D01*
X139684538Y-102411521D01*
X139660133Y-102411521D01*
X139580781Y-102403706D01*
X139502579Y-102388150D01*
X139426277Y-102365005D01*
X139352611Y-102334491D01*
X139282292Y-102296904D01*
X139215994Y-102252606D01*
X139154358Y-102202023D01*
X139097977Y-102145642D01*
X139047394Y-102084006D01*
X139003096Y-102017708D01*
X138965509Y-101947389D01*
X138934995Y-101873723D01*
X138911850Y-101797421D01*
X138896294Y-101719219D01*
X138888479Y-101639867D01*
X138888479Y-101574853D01*
X139188117Y-101574853D01*
X139188117Y-101625147D01*
X139193047Y-101675199D01*
X139202859Y-101724527D01*
X139217459Y-101772656D01*
X139236705Y-101819122D01*
X139260414Y-101863478D01*
X139288356Y-101905296D01*
X139320263Y-101944174D01*
X139355826Y-101979737D01*
X139394704Y-102011644D01*
X139436522Y-102039586D01*
X139480878Y-102063295D01*
X139527344Y-102082541D01*
X139575473Y-102097141D01*
X139624801Y-102106953D01*
X139674853Y-102111883D01*
X139725147Y-102111883D01*
X139775199Y-102106953D01*
X139824527Y-102097141D01*
X139872656Y-102082541D01*
X139919122Y-102063295D01*
X139963478Y-102039586D01*
X140005296Y-102011644D01*
X140044174Y-101979737D01*
X140079737Y-101944174D01*
X140111644Y-101905296D01*
X140139586Y-101863478D01*
X140163295Y-101819122D01*
X140182541Y-101772656D01*
X140197141Y-101724527D01*
X140206953Y-101675199D01*
X140211883Y-101625147D01*
X140211883Y-101574853D01*
X140206953Y-101524801D01*
X140197141Y-101475473D01*
X140182541Y-101427344D01*
X140163295Y-101380878D01*
X140139586Y-101336522D01*
X140111644Y-101294704D01*
X140079737Y-101255826D01*
X140044174Y-101220263D01*
X140005296Y-101188356D01*
X139963478Y-101160414D01*
X139919122Y-101136705D01*
X139872656Y-101117459D01*
X139824527Y-101102859D01*
X139775199Y-101093047D01*
X139725147Y-101088117D01*
X139674853Y-101088117D01*
X139624801Y-101093047D01*
X139575473Y-101102859D01*
X139527344Y-101117459D01*
X139480878Y-101136705D01*
X139436522Y-101160414D01*
X139394704Y-101188356D01*
X139355826Y-101220263D01*
X139320263Y-101255826D01*
X139288356Y-101294704D01*
X139260414Y-101336522D01*
X139236705Y-101380878D01*
X139217459Y-101427344D01*
X139202859Y-101475473D01*
X139193047Y-101524801D01*
X139188117Y-101574853D01*
X138888479Y-101574853D01*
X138888479Y-101560133D01*
X138896294Y-101480781D01*
X138911850Y-101402579D01*
X138934995Y-101326277D01*
X138965509Y-101252611D01*
X139003096Y-101182292D01*
X139047394Y-101115994D01*
X139097977Y-101054358D01*
X139154358Y-100997977D01*
X139215994Y-100947394D01*
X139282292Y-100903096D01*
X139352611Y-100865509D01*
X139426277Y-100834995D01*
X139502579Y-100811850D01*
X139580781Y-100796294D01*
X139660133Y-100788479D01*
X139739867Y-100788479D01*
X139819219Y-100796294D01*
X139819219Y-100796294D01*
G37*
D12*
X136727500Y-99526000D03*
X135052500Y-99526000D03*
X135052500Y-100348000D03*
X136727500Y-100348000D03*
D13*
X135890000Y-102262500D03*
D10*
G36*
X136009219Y-100796294D02*
G01*
X136087421Y-100811850D01*
X136163723Y-100834995D01*
X136237389Y-100865509D01*
X136307708Y-100903096D01*
X136374006Y-100947394D01*
X136435642Y-100997977D01*
X136492023Y-101054358D01*
X136542606Y-101115994D01*
X136586904Y-101182292D01*
X136624491Y-101252611D01*
X136655005Y-101326277D01*
X136678150Y-101402579D01*
X136693706Y-101480781D01*
X136701521Y-101560133D01*
X136701521Y-101639867D01*
X136693706Y-101719219D01*
X136678150Y-101797421D01*
X136655005Y-101873723D01*
X136624491Y-101947389D01*
X136586904Y-102017708D01*
X136542606Y-102084006D01*
X136492023Y-102145642D01*
X136435642Y-102202023D01*
X136374006Y-102252606D01*
X136307708Y-102296904D01*
X136237389Y-102334491D01*
X136163723Y-102365005D01*
X136087421Y-102388150D01*
X136009219Y-102403706D01*
X135929867Y-102411521D01*
X135905462Y-102411521D01*
X135897360Y-102412319D01*
X135882640Y-102412319D01*
X135874538Y-102411521D01*
X135850133Y-102411521D01*
X135770781Y-102403706D01*
X135692579Y-102388150D01*
X135616277Y-102365005D01*
X135542611Y-102334491D01*
X135472292Y-102296904D01*
X135405994Y-102252606D01*
X135344358Y-102202023D01*
X135287977Y-102145642D01*
X135237394Y-102084006D01*
X135193096Y-102017708D01*
X135155509Y-101947389D01*
X135124995Y-101873723D01*
X135101850Y-101797421D01*
X135086294Y-101719219D01*
X135078479Y-101639867D01*
X135078479Y-101574853D01*
X135378117Y-101574853D01*
X135378117Y-101625147D01*
X135383047Y-101675199D01*
X135392859Y-101724527D01*
X135407459Y-101772656D01*
X135426705Y-101819122D01*
X135450414Y-101863478D01*
X135478356Y-101905296D01*
X135510263Y-101944174D01*
X135545826Y-101979737D01*
X135584704Y-102011644D01*
X135626522Y-102039586D01*
X135670878Y-102063295D01*
X135717344Y-102082541D01*
X135765473Y-102097141D01*
X135814801Y-102106953D01*
X135864853Y-102111883D01*
X135915147Y-102111883D01*
X135965199Y-102106953D01*
X136014527Y-102097141D01*
X136062656Y-102082541D01*
X136109122Y-102063295D01*
X136153478Y-102039586D01*
X136195296Y-102011644D01*
X136234174Y-101979737D01*
X136269737Y-101944174D01*
X136301644Y-101905296D01*
X136329586Y-101863478D01*
X136353295Y-101819122D01*
X136372541Y-101772656D01*
X136387141Y-101724527D01*
X136396953Y-101675199D01*
X136401883Y-101625147D01*
X136401883Y-101574853D01*
X136396953Y-101524801D01*
X136387141Y-101475473D01*
X136372541Y-101427344D01*
X136353295Y-101380878D01*
X136329586Y-101336522D01*
X136301644Y-101294704D01*
X136269737Y-101255826D01*
X136234174Y-101220263D01*
X136195296Y-101188356D01*
X136153478Y-101160414D01*
X136109122Y-101136705D01*
X136062656Y-101117459D01*
X136014527Y-101102859D01*
X135965199Y-101093047D01*
X135915147Y-101088117D01*
X135864853Y-101088117D01*
X135814801Y-101093047D01*
X135765473Y-101102859D01*
X135717344Y-101117459D01*
X135670878Y-101136705D01*
X135626522Y-101160414D01*
X135584704Y-101188356D01*
X135545826Y-101220263D01*
X135510263Y-101255826D01*
X135478356Y-101294704D01*
X135450414Y-101336522D01*
X135426705Y-101380878D01*
X135407459Y-101427344D01*
X135392859Y-101475473D01*
X135383047Y-101524801D01*
X135378117Y-101574853D01*
X135078479Y-101574853D01*
X135078479Y-101560133D01*
X135086294Y-101480781D01*
X135101850Y-101402579D01*
X135124995Y-101326277D01*
X135155509Y-101252611D01*
X135193096Y-101182292D01*
X135237394Y-101115994D01*
X135287977Y-101054358D01*
X135344358Y-100997977D01*
X135405994Y-100947394D01*
X135472292Y-100903096D01*
X135542611Y-100865509D01*
X135616277Y-100834995D01*
X135692579Y-100811850D01*
X135770781Y-100796294D01*
X135850133Y-100788479D01*
X135929867Y-100788479D01*
X136009219Y-100796294D01*
X136009219Y-100796294D01*
G37*
D12*
X125297500Y-99526000D03*
X123622500Y-99526000D03*
X123622500Y-100348000D03*
X125297500Y-100348000D03*
D13*
X124460000Y-102262500D03*
D10*
G36*
X124579219Y-100796294D02*
G01*
X124657421Y-100811850D01*
X124733723Y-100834995D01*
X124807389Y-100865509D01*
X124877708Y-100903096D01*
X124944006Y-100947394D01*
X125005642Y-100997977D01*
X125062023Y-101054358D01*
X125112606Y-101115994D01*
X125156904Y-101182292D01*
X125194491Y-101252611D01*
X125225005Y-101326277D01*
X125248150Y-101402579D01*
X125263706Y-101480781D01*
X125271521Y-101560133D01*
X125271521Y-101639867D01*
X125263706Y-101719219D01*
X125248150Y-101797421D01*
X125225005Y-101873723D01*
X125194491Y-101947389D01*
X125156904Y-102017708D01*
X125112606Y-102084006D01*
X125062023Y-102145642D01*
X125005642Y-102202023D01*
X124944006Y-102252606D01*
X124877708Y-102296904D01*
X124807389Y-102334491D01*
X124733723Y-102365005D01*
X124657421Y-102388150D01*
X124579219Y-102403706D01*
X124499867Y-102411521D01*
X124475462Y-102411521D01*
X124467360Y-102412319D01*
X124452640Y-102412319D01*
X124444538Y-102411521D01*
X124420133Y-102411521D01*
X124340781Y-102403706D01*
X124262579Y-102388150D01*
X124186277Y-102365005D01*
X124112611Y-102334491D01*
X124042292Y-102296904D01*
X123975994Y-102252606D01*
X123914358Y-102202023D01*
X123857977Y-102145642D01*
X123807394Y-102084006D01*
X123763096Y-102017708D01*
X123725509Y-101947389D01*
X123694995Y-101873723D01*
X123671850Y-101797421D01*
X123656294Y-101719219D01*
X123648479Y-101639867D01*
X123648479Y-101574853D01*
X123948117Y-101574853D01*
X123948117Y-101625147D01*
X123953047Y-101675199D01*
X123962859Y-101724527D01*
X123977459Y-101772656D01*
X123996705Y-101819122D01*
X124020414Y-101863478D01*
X124048356Y-101905296D01*
X124080263Y-101944174D01*
X124115826Y-101979737D01*
X124154704Y-102011644D01*
X124196522Y-102039586D01*
X124240878Y-102063295D01*
X124287344Y-102082541D01*
X124335473Y-102097141D01*
X124384801Y-102106953D01*
X124434853Y-102111883D01*
X124485147Y-102111883D01*
X124535199Y-102106953D01*
X124584527Y-102097141D01*
X124632656Y-102082541D01*
X124679122Y-102063295D01*
X124723478Y-102039586D01*
X124765296Y-102011644D01*
X124804174Y-101979737D01*
X124839737Y-101944174D01*
X124871644Y-101905296D01*
X124899586Y-101863478D01*
X124923295Y-101819122D01*
X124942541Y-101772656D01*
X124957141Y-101724527D01*
X124966953Y-101675199D01*
X124971883Y-101625147D01*
X124971883Y-101574853D01*
X124966953Y-101524801D01*
X124957141Y-101475473D01*
X124942541Y-101427344D01*
X124923295Y-101380878D01*
X124899586Y-101336522D01*
X124871644Y-101294704D01*
X124839737Y-101255826D01*
X124804174Y-101220263D01*
X124765296Y-101188356D01*
X124723478Y-101160414D01*
X124679122Y-101136705D01*
X124632656Y-101117459D01*
X124584527Y-101102859D01*
X124535199Y-101093047D01*
X124485147Y-101088117D01*
X124434853Y-101088117D01*
X124384801Y-101093047D01*
X124335473Y-101102859D01*
X124287344Y-101117459D01*
X124240878Y-101136705D01*
X124196522Y-101160414D01*
X124154704Y-101188356D01*
X124115826Y-101220263D01*
X124080263Y-101255826D01*
X124048356Y-101294704D01*
X124020414Y-101336522D01*
X123996705Y-101380878D01*
X123977459Y-101427344D01*
X123962859Y-101475473D01*
X123953047Y-101524801D01*
X123948117Y-101574853D01*
X123648479Y-101574853D01*
X123648479Y-101560133D01*
X123656294Y-101480781D01*
X123671850Y-101402579D01*
X123694995Y-101326277D01*
X123725509Y-101252611D01*
X123763096Y-101182292D01*
X123807394Y-101115994D01*
X123857977Y-101054358D01*
X123914358Y-100997977D01*
X123975994Y-100947394D01*
X124042292Y-100903096D01*
X124112611Y-100865509D01*
X124186277Y-100834995D01*
X124262579Y-100811850D01*
X124340781Y-100796294D01*
X124420133Y-100788479D01*
X124499867Y-100788479D01*
X124579219Y-100796294D01*
X124579219Y-100796294D01*
G37*
M02*
